<svg fill="#000000" xmlns="http://www.w3.org/2000/svg"  viewBox="0 0 100 100" width="200px" height="200px"><path d="M 24 13 A 1.0001 1.0001 0 0 0 23.292969 14.707031 L 58.585938 50 L 23.292969 85.292969 A 1.0001 1.0001 0 0 0 24 87 L 40 87 A 1.0001 1.0001 0 0 0 40.707031 86.707031 L 76.707031 50.707031 A 1.0001 1.0001 0 0 0 76.707031 49.292969 L 40.707031 13.292969 A 1.0001 1.0001 0 0 0 40 13 L 24 13 z M 26.414062 15 L 39.585938 15 L 74.585938 50 L 39.585938 85 L 26.414062 85 L 60.707031 50.707031 A 1.0001 1.0001 0 0 0 60.707031 49.292969 L 26.414062 15 z M 40.994141 19.994141 A 0.50005 0.50005 0 0 0 40.646484 20.853516 L 57.146484 37.353516 A 0.50005 0.50005 0 1 0 57.853516 36.646484 L 41.353516 20.146484 A 0.50005 0.50005 0 0 0 40.994141 19.994141 z M 62.994141 41.994141 A 0.50005 0.50005 0 0 0 62.646484 42.853516 L 66.146484 46.353516 A 0.50005 0.50005 0 1 0 66.853516 45.646484 L 63.353516 42.146484 A 0.50005 0.50005 0 0 0 62.994141 41.994141 z M 68.994141 47.994141 A 0.50005 0.50005 0 0 0 68.646484 48.853516 L 70.146484 50.353516 A 0.50005 0.50005 0 1 0 70.853516 49.646484 L 69.353516 48.146484 A 0.50005 0.50005 0 0 0 68.994141 47.994141 z M 64.990234 54.996094 A 0.50005 0.50005 0 0 0 64.646484 55.146484 L 40.646484 79.146484 A 0.50005 0.50005 0 1 0 41.353516 79.853516 L 65.353516 55.853516 A 0.50005 0.50005 0 0 0 64.990234 54.996094 z"/></svg>