<svg fill="#000000" xmlns="http://www.w3.org/2000/svg"  viewBox="0 0 50 50" width="100px" height="100px"><path d="M 49.511719 2.140625 C 49.207031 1.960938 48.832031 1.953125 48.523438 2.121094 L 37.964844 7.882813 L 25.417969 2.089844 C 25.144531 1.964844 24.824219 1.96875 24.554688 2.105469 L 13 7.882813 L 1.445313 2.105469 C 1.136719 1.953125 0.769531 1.96875 0.472656 2.148438 C 0.179688 2.332031 0 2.652344 0 3 L 0 41 C 0 41.378906 0.214844 41.726563 0.554688 41.894531 L 12.554688 47.894531 C 12.835938 48.035156 13.164063 48.035156 13.449219 47.894531 L 25.019531 42.109375 L 37.582031 47.910156 C 37.714844 47.96875 37.855469 48 38 48 C 38.164063 48 38.328125 47.960938 38.480469 47.878906 L 49.480469 41.878906 C 49.800781 41.703125 50 41.367188 50 41 L 50 3 C 50 2.648438 49.8125 2.320313 49.511719 2.140625 Z M 42.738281 16.433594 C 43.207031 16.144531 43.824219 16.285156 44.113281 16.757813 C 44.304688 17.0625 44.480469 17.382813 44.644531 17.722656 C 44.886719 18.21875 44.679688 18.816406 44.183594 19.058594 C 44.039063 19.125 43.894531 19.15625 43.746094 19.15625 C 43.375 19.15625 43.019531 18.949219 42.847656 18.59375 C 42.710938 18.320313 42.570313 18.058594 42.414063 17.808594 C 42.125 17.339844 42.269531 16.726563 42.738281 16.433594 Z M 38.792969 13.417969 C 39.058594 12.933594 39.667969 12.757813 40.152344 13.023438 C 40.46875 13.199219 40.78125 13.390625 41.085938 13.597656 C 41.539063 13.910156 41.65625 14.53125 41.347656 14.988281 C 41.152344 15.273438 40.839844 15.425781 40.519531 15.425781 C 40.324219 15.425781 40.128906 15.367188 39.957031 15.25 C 39.707031 15.078125 39.449219 14.921875 39.1875 14.777344 C 38.703125 14.507813 38.527344 13.898438 38.792969 13.417969 Z M 6.566406 12.902344 C 6.390625 13.015625 6.195313 13.070313 6.003906 13.070313 C 5.691406 13.070313 5.394531 12.921875 5.214844 12.632813 L 5.144531 12.515625 C 4.859375 12.042969 5.011719 11.429688 5.484375 11.144531 C 5.953125 10.859375 6.570313 11.011719 6.855469 11.484375 C 7.148438 11.953125 7.035156 12.609375 6.566406 12.902344 Z M 7.742188 14.582031 C 8.164063 14.226563 8.796875 14.277344 9.152344 14.699219 C 9.363281 14.949219 9.574219 15.1875 9.78125 15.40625 C 10.160156 15.808594 10.140625 16.441406 9.738281 16.820313 C 9.546875 17.003906 9.300781 17.09375 9.054688 17.09375 C 8.785156 17.09375 8.519531 16.988281 8.324219 16.777344 C 8.09375 16.53125 7.859375 16.269531 7.625 15.992188 C 7.269531 15.570313 7.320313 14.9375 7.742188 14.582031 Z M 11 41 C 9.34375 41 8 39.65625 8 38 C 8 36.34375 9.34375 35 11 35 C 12.65625 35 14 36.34375 14 38 C 14 39.65625 12.65625 41 11 41 Z M 14.027344 19.3125 C 13.878906 19.714844 13.496094 19.964844 13.089844 19.964844 C 12.972656 19.964844 12.855469 19.945313 12.742188 19.902344 C 12.398438 19.777344 12.054688 19.621094 11.714844 19.445313 C 11.222656 19.191406 11.035156 18.585938 11.289063 18.097656 C 11.546875 17.605469 12.148438 17.414063 12.636719 17.671875 C 12.90625 17.808594 13.171875 17.929688 13.433594 18.023438 C 13.953125 18.21875 14.21875 18.792969 14.027344 19.3125 Z M 16.734375 36.578125 C 16.441406 36.65625 16.140625 36.742188 15.832031 36.84375 C 15.730469 36.878906 15.625 36.894531 15.523438 36.894531 C 15.101563 36.894531 14.710938 36.625 14.570313 36.203125 C 14.398438 35.679688 14.6875 35.113281 15.210938 34.941406 C 15.558594 34.828125 15.894531 34.730469 16.226563 34.644531 C 16.761719 34.511719 17.308594 34.824219 17.449219 35.359375 C 17.589844 35.890625 17.269531 36.4375 16.734375 36.578125 Z M 18.308594 19.894531 C 17.953125 20.015625 17.597656 20.117188 17.234375 20.195313 C 17.164063 20.210938 17.089844 20.21875 17.019531 20.21875 C 16.5625 20.21875 16.148438 19.902344 16.042969 19.433594 C 15.925781 18.894531 16.265625 18.359375 16.804688 18.242188 C 17.09375 18.179688 17.375 18.097656 17.65625 18.003906 C 18.179688 17.824219 18.75 18.101563 18.929688 18.621094 C 19.105469 19.144531 18.828125 19.714844 18.308594 19.894531 Z M 21.4375 36.21875 C 21.402344 36.21875 21.367188 36.21875 21.335938 36.214844 C 21.03125 36.183594 20.722656 36.160156 20.40625 36.152344 C 19.855469 36.132813 19.421875 35.671875 19.441406 35.121094 C 19.457031 34.566406 19.914063 34.097656 20.472656 34.152344 C 20.832031 34.164063 21.1875 34.1875 21.535156 34.222656 C 22.085938 34.28125 22.488281 34.769531 22.429688 35.320313 C 22.378906 35.835938 21.945313 36.21875 21.4375 36.21875 Z M 22 20 C 20.34375 20 19 18.65625 19 17 C 19 15.34375 20.34375 14 22 14 C 23.65625 14 25 15.34375 25 17 C 25 18.65625 23.65625 20 22 20 Z M 27.242188 36.679688 C 27.105469 37.101563 26.710938 37.371094 26.289063 37.371094 C 26.1875 37.371094 26.085938 37.355469 25.980469 37.320313 C 25.671875 37.222656 25.359375 37.121094 25.046875 37.027344 C 24.515625 36.867188 24.21875 36.308594 24.378906 35.78125 C 24.539063 35.253906 25.097656 34.953125 25.625 35.113281 C 25.949219 35.214844 26.273438 35.316406 26.597656 35.421875 C 27.121094 35.589844 27.410156 36.152344 27.242188 36.679688 Z M 26.882813 14.308594 C 26.621094 14.484375 26.363281 14.675781 26.097656 14.871094 C 25.917969 15.003906 25.710938 15.066406 25.503906 15.066406 C 25.199219 15.066406 24.894531 14.925781 24.699219 14.664063 C 24.371094 14.21875 24.464844 13.59375 24.90625 13.265625 C 25.191406 13.054688 25.472656 12.851563 25.753906 12.660156 C 26.207031 12.347656 26.828125 12.464844 27.144531 12.917969 C 27.453125 13.375 27.335938 13.996094 26.882813 14.308594 Z M 29.957031 10.976563 C 30.300781 10.976563 30.636719 10.980469 30.980469 10.988281 C 31.53125 11 31.96875 11.457031 31.957031 12.007813 C 31.945313 12.554688 31.5 12.988281 30.957031 12.988281 C 30.949219 12.988281 30.941406 12.988281 30.9375 12.988281 C 30.605469 12.980469 30.285156 12.976563 29.976563 12.976563 C 29.421875 12.976563 28.964844 12.527344 28.964844 11.976563 C 28.964844 11.425781 29.402344 10.976563 29.957031 10.976563 Z M 31.097656 38.726563 C 31.035156 38.726563 30.976563 38.722656 30.910156 38.710938 C 30.5625 38.644531 30.222656 38.570313 29.886719 38.488281 C 29.351563 38.359375 29.019531 37.820313 29.148438 37.285156 C 29.277344 36.746094 29.820313 36.421875 30.355469 36.546875 C 30.660156 36.617188 30.96875 36.6875 31.285156 36.746094 C 31.828125 36.847656 32.183594 37.371094 32.082031 37.914063 C 31.988281 38.394531 31.570313 38.726563 31.097656 38.726563 Z M 35.109375 11.351563 C 35.453125 11.410156 35.796875 11.476563 36.140625 11.554688 C 36.679688 11.675781 37.019531 12.207031 36.902344 12.746094 C 36.796875 13.214844 36.382813 13.53125 35.925781 13.53125 C 35.851563 13.53125 35.78125 13.523438 35.707031 13.507813 C 35.394531 13.4375 35.085938 13.378906 34.773438 13.324219 C 34.230469 13.230469 33.863281 12.714844 33.957031 12.171875 C 34.050781 11.625 34.566406 11.261719 35.109375 11.351563 Z M 36.261719 38.796875 C 35.898438 38.867188 35.535156 38.921875 35.175781 38.957031 C 35.144531 38.960938 35.109375 38.964844 35.074219 38.964844 C 34.566406 38.964844 34.132813 38.578125 34.082031 38.0625 C 34.023438 37.515625 34.425781 37.023438 34.976563 36.96875 C 35.273438 36.9375 35.574219 36.894531 35.871094 36.835938 C 36.417969 36.71875 36.9375 37.078125 37.046875 37.621094 C 37.152344 38.160156 36.800781 38.6875 36.261719 38.796875 Z M 40 39 C 38.34375 39 37 37.65625 37 36 C 37 34.34375 38.34375 33 40 33 C 41.65625 33 43 34.34375 43 36 C 43 37.65625 41.65625 39 40 39 Z M 44.449219 32.179688 C 44.292969 32.515625 44.128906 32.835938 43.953125 33.140625 C 43.769531 33.464844 43.429688 33.644531 43.082031 33.644531 C 42.914063 33.644531 42.746094 33.605469 42.589844 33.515625 C 42.109375 33.242188 41.941406 32.632813 42.214844 32.152344 C 42.363281 31.890625 42.503906 31.621094 42.636719 31.335938 C 42.867188 30.835938 43.460938 30.621094 43.964844 30.851563 C 44.464844 31.085938 44.683594 31.679688 44.449219 32.179688 Z M 45.695313 28.117188 C 45.609375 28.605469 45.1875 28.949219 44.710938 28.949219 C 44.652344 28.949219 44.597656 28.941406 44.539063 28.933594 C 43.992188 28.839844 43.628906 28.320313 43.722656 27.777344 C 43.777344 27.472656 43.820313 27.160156 43.859375 26.84375 C 43.925781 26.292969 44.414063 25.902344 44.972656 25.964844 C 45.519531 26.03125 45.910156 26.527344 45.847656 27.074219 C 45.804688 27.433594 45.753906 27.78125 45.695313 28.117188 Z M 45.019531 23.96875 C 44.996094 23.96875 44.972656 23.96875 44.949219 23.96875 C 44.429688 23.96875 43.988281 23.566406 43.953125 23.039063 C 43.929688 22.71875 43.898438 22.410156 43.855469 22.109375 C 43.785156 21.5625 44.167969 21.058594 44.714844 20.984375 C 45.261719 20.914063 45.765625 21.296875 45.839844 21.84375 C 45.886719 22.183594 45.921875 22.535156 45.945313 22.898438 C 45.988281 23.449219 45.570313 23.929688 45.019531 23.96875 Z"/></svg>