<?xml version="1.0" encoding="UTF-8"?>
<svg xmlns="http://www.w3.org/2000/svg" xmlns:xlink="http://www.w3.org/1999/xlink" width="128pt" height="128pt" viewBox="0 0 128 128" version="1.1">
<g id="surface41551608">
<path style=" stroke:none;fill-rule:nonzero;fill:rgb(100%,100%,100%);fill-opacity:1;" d="M 15.5 29.898438 L 15.5 98.199219 C 15.5 104.898438 20.898438 110.300781 27.601562 110.300781 L 112.5 110.300781 L 112.5 29.898438 L 15.5 29.898438 "/>
<path style=" stroke:none;fill-rule:nonzero;fill:rgb(85.09804%,85.09804%,85.09804%);fill-opacity:1;" d="M 42.5 29.898438 L 15.5 29.898438 L 15.5 98.199219 C 15.5 98.203125 15.5 98.207031 15.5 98.210938 L 15.5 98.214844 C 15.5 98.214844 15.5 98.21875 15.5 98.222656 C 15.507812 102.113281 17.40625 105.605469 20.398438 107.800781 C 20.398438 103.800781 23.699219 100.601562 27.699219 100.601562 L 42.5 100.601562 L 42.5 29.898438 "/>
<path style=" stroke:none;fill-rule:nonzero;fill:rgb(27.058825%,29.411766%,32.941177%);fill-opacity:1;" d="M 112.5 113.199219 L 27.601562 113.199219 C 19.300781 113.199219 12.5 106.398438 12.5 98.199219 L 12.5 29.898438 C 12.5 28.199219 13.800781 26.898438 15.5 26.898438 C 17.199219 26.898438 18.5 28.199219 18.5 29.898438 L 18.5 98.199219 C 18.5 103.199219 22.601562 107.199219 27.601562 107.199219 L 109.5 107.199219 L 109.5 32.898438 L 34.800781 32.898438 C 33.101562 32.898438 31.800781 31.601562 31.800781 29.898438 C 31.800781 28.199219 33.101562 26.898438 34.800781 26.898438 L 112.5 26.898438 C 114.199219 26.898438 115.5 28.199219 115.5 29.898438 L 115.5 110.199219 C 115.5 111.800781 114.199219 113.199219 112.5 113.199219 Z M 112.5 113.199219 "/>
<path style=" stroke:none;fill-rule:nonzero;fill:rgb(90.588236%,29.803923%,23.529412%);fill-opacity:1;" d="M 27.601562 86.101562 C 20.898438 86.101562 15.5 91.5 15.5 98.199219 L 15.5 29.898438 C 15.5 23.199219 20.898438 17.800781 27.601562 17.800781 L 33.300781 17.699219 L 32.601562 86.101562 Z M 27.601562 86.101562 "/>
<path style=" stroke:none;fill-rule:nonzero;fill:rgb(27.058825%,29.411766%,32.941177%);fill-opacity:1;" d="M 15.5 101.101562 C 13.800781 101.101562 12.5 99.800781 12.5 98.101562 L 12.5 29.898438 C 12.5 21.601562 19.300781 14.800781 27.601562 14.800781 L 33.199219 14.699219 C 34 14.699219 34.800781 15 35.398438 15.601562 C 36 16.199219 36.300781 17 36.300781 17.800781 L 35.601562 86.199219 C 35.601562 87.800781 34.199219 89.199219 32.601562 89.199219 L 27.601562 89.199219 C 25.898438 89.199219 24.601562 87.898438 24.601562 86.199219 C 24.601562 84.5 25.898438 83.199219 27.601562 83.199219 L 29.601562 83.199219 L 30.199219 20.898438 L 27.601562 21 C 22.5 21 18.398438 25.101562 18.398438 30.101562 L 18.398438 98.398438 C 18.5 99.800781 17.199219 101.101562 15.5 101.101562 Z M 15.5 101.101562 "/>
<path style=" stroke:none;fill-rule:nonzero;fill:rgb(90.588236%,29.803923%,23.529412%);fill-opacity:1;" d="M 52.199219 58 L 72.5 58 C 74.199219 58 75.5 59.300781 75.5 61 C 75.5 62.699219 74.199219 64 72.5 64 L 55.199219 64 L 55.199219 89.800781 L 69.5 89.800781 L 69.5 71.398438 C 69.5 69.699219 70.800781 68.398438 72.5 68.398438 C 74.199219 68.398438 75.5 69.699219 75.5 71.398438 L 75.5 89.800781 L 80.300781 89.800781 C 82 89.800781 83.300781 91.101562 83.300781 92.800781 C 83.300781 94.5 82 95.800781 80.300781 95.800781 L 52.300781 95.800781 C 50.601562 95.800781 49.300781 94.5 49.300781 92.800781 L 49.300781 61 C 49.199219 59.300781 50.5 58 52.199219 58 Z M 52.199219 58 "/>
<path style=" stroke:none;fill-rule:nonzero;fill:rgb(90.588236%,29.803923%,23.529412%);fill-opacity:1;" d="M 84.398438 64 C 82.699219 64 81.398438 62.699219 81.398438 61 C 81.398438 59.300781 82.699219 58 84.398438 58 L 95.101562 58 L 95.101562 51.800781 L 72.5 51.800781 C 70.800781 51.800781 69.5 50.5 69.5 48.800781 C 69.5 47.101562 70.800781 45.800781 72.5 45.800781 L 98.101562 45.800781 C 99.800781 45.800781 101.101562 47.101562 101.101562 48.800781 L 101.101562 92.800781 C 101.101562 94.5 99.800781 95.800781 98.101562 95.800781 L 92.101562 95.800781 C 90.398438 95.800781 89.101562 94.5 89.101562 92.800781 C 89.101562 91.101562 90.398438 89.800781 92.101562 89.800781 L 95.101562 89.800781 L 95.101562 64 Z M 84.398438 64 "/>
</g>
</svg>
