<?xml version="1.0" encoding="UTF-8"?>
<svg xmlns="http://www.w3.org/2000/svg" xmlns:xlink="http://www.w3.org/1999/xlink" width="50pt" height="50pt" viewBox="0 0 50 50" version="1.1">
<g id="surface27391385">
<path style=" stroke:none;fill-rule:nonzero;fill:rgb(100%,100%,100%);fill-opacity:1;" d="M 39.5 7 C 39.5 7.277344 39.277344 7.5 39 7.5 C 38.722656 7.5 38.5 7.277344 38.5 7 C 38.5 6.722656 38.722656 6.5 39 6.5 C 39.277344 6.5 39.5 6.722656 39.5 7 Z M 39.5 7 "/>
<path style=" stroke:none;fill-rule:nonzero;fill:rgb(100%,100%,100%);fill-opacity:1;" d="M 44 25 C 44 35.492188 35.492188 44 25 44 C 14.507812 44 6 35.492188 6 25 C 6 14.507812 14.507812 6 25 6 C 35.492188 6 44 14.507812 44 25 Z M 44 25 "/>
<path style=" stroke:none;fill-rule:nonzero;fill:rgb(100%,100%,100%);fill-opacity:1;" d="M 44 8 C 44 9.105469 43.105469 10 42 10 C 40.894531 10 40 9.105469 40 8 C 40 6.894531 40.894531 6 42 6 C 43.105469 6 44 6.894531 44 8 Z M 44 8 "/>
<path style=" stroke:none;fill-rule:nonzero;fill:rgb(100%,100%,100%);fill-opacity:1;" d="M 8 13 C 8 13.550781 7.550781 14 7 14 C 6.449219 14 6 13.550781 6 13 C 6 12.449219 6.449219 12 7 12 C 7.550781 12 8 12.449219 8 13 Z M 8 13 "/>
<path style=" stroke:none;fill-rule:nonzero;fill:rgb(100%,100%,100%);fill-opacity:1;" d="M 40 38.5 C 40 39.050781 39.550781 39.5 39 39.5 C 38.449219 39.5 38 39.050781 38 38.5 C 38 37.949219 38.449219 37.5 39 37.5 C 39.550781 37.5 40 37.949219 40 38.5 Z M 40 38.5 "/>
<path style=" stroke:none;fill-rule:nonzero;fill:rgb(100%,100%,100%);fill-opacity:1;" d="M 10.5 39 C 10.5 40.105469 9.605469 41 8.5 41 C 7.394531 41 6.5 40.105469 6.5 39 C 6.5 37.894531 7.394531 37 8.5 37 C 9.605469 37 10.5 37.894531 10.5 39 Z M 10.5 39 "/>
<path style=" stroke:none;fill-rule:nonzero;fill:rgb(100%,100%,100%);fill-opacity:1;" d="M 13 41.5 C 13 42.050781 12.550781 42.5 12 42.5 C 11.449219 42.5 11 42.050781 11 41.5 C 11 40.949219 11.449219 40.5 12 40.5 C 12.550781 40.5 13 40.949219 13 41.5 Z M 13 41.5 "/>
<path style=" stroke:none;fill-rule:nonzero;fill:rgb(100%,100%,100%);fill-opacity:1;" d="M 33.484375 39.257812 C 33.484375 39.945312 32.925781 40.5 32.242188 40.5 C 31.554688 40.5 31 39.945312 31 39.257812 C 31 38.574219 31.554688 38.015625 32.242188 38.015625 C 32.925781 38.015625 33.484375 38.574219 33.484375 39.257812 Z M 33.484375 39.257812 "/>
<path style=" stroke:none;fill-rule:nonzero;fill:rgb(100%,100%,100%);fill-opacity:1;" d="M 8.5 24 C 8.5 24.277344 8.277344 24.5 8 24.5 C 7.722656 24.5 7.5 24.277344 7.5 24 C 7.5 23.722656 7.722656 23.5 8 23.5 C 8.277344 23.5 8.5 23.722656 8.5 24 Z M 8.5 24 "/>
<path style=" stroke:none;fill-rule:nonzero;fill:rgb(100%,100%,100%);fill-opacity:1;" d="M 43.5 15.5 C 43.5 15.777344 43.277344 16 43 16 C 42.722656 16 42.5 15.777344 42.5 15.5 C 42.5 15.222656 42.722656 15 43 15 C 43.277344 15 43.5 15.222656 43.5 15.5 Z M 43.5 15.5 "/>
<path style=" stroke:none;fill-rule:nonzero;fill:rgb(100%,100%,100%);fill-opacity:1;" d="M 38.5 14 C 38.5 14.550781 38.050781 15 37.5 15 C 36.949219 15 36.5 14.550781 36.5 14 C 36.5 13.449219 36.949219 13 37.5 13 C 38.050781 13 38.5 13.449219 38.5 14 Z M 38.5 14 "/>
<path style=" stroke:none;fill-rule:nonzero;fill:rgb(63.137257%,63.137257%,79.215688%);fill-opacity:1;" d="M 16.75 30.148438 C 14.910156 30.148438 13.40625 28.679688 13.351562 26.851562 L 19.148438 26.851562 L 19.148438 30.148438 Z M 16.75 30.148438 "/>
<path style=" stroke:none;fill-rule:nonzero;fill:rgb(27.843139%,16.862746%,16.078432%);fill-opacity:1;" d="M 18.800781 27.199219 L 18.800781 29.800781 L 16.75 29.800781 C 15.222656 29.800781 13.953125 28.667969 13.734375 27.199219 L 18.800781 27.199219 M 19.25 26.5 L 13.25 26.5 C 13.113281 26.5 13 26.613281 13 26.75 C 13 28.820312 14.679688 30.5 16.75 30.5 L 19.25 30.5 C 19.386719 30.5 19.5 30.386719 19.5 30.25 L 19.5 26.75 C 19.5 26.613281 19.386719 26.5 19.25 26.5 Z M 19.25 26.5 "/>
<path style=" stroke:none;fill-rule:nonzero;fill:rgb(63.137257%,63.137257%,79.215688%);fill-opacity:1;" d="M 18.851562 37.148438 L 18.851562 35.351562 L 19.574219 35.351562 C 19.695312 35.351562 19.8125 35.316406 19.910156 35.25 C 20.941406 34.578125 21.441406 33.546875 21.25 32.492188 C 21.046875 31.386719 20.128906 30.519531 18.847656 30.214844 L 18.847656 26.351562 L 34.648438 26.351562 L 34.648438 28.226562 C 32.664062 28.773438 30.988281 30.226562 30.46875 31.871094 C 30.101562 33.035156 30.335938 34.195312 31.132812 35.136719 C 31.246094 35.269531 31.421875 35.351562 31.597656 35.351562 L 32.148438 35.351562 L 32.148438 37.148438 Z M 18.851562 37.148438 "/>
<path style=" stroke:none;fill-rule:nonzero;fill:rgb(27.843139%,16.862746%,16.078432%);fill-opacity:1;" d="M 34.300781 26.699219 L 34.300781 27.964844 C 32.289062 28.597656 30.675781 30.058594 30.136719 31.765625 C 29.730469 33.046875 29.988281 34.324219 30.867188 35.363281 C 31.046875 35.578125 31.316406 35.699219 31.597656 35.699219 L 31.800781 35.699219 L 31.800781 36.800781 L 19.199219 36.800781 L 19.199219 35.699219 L 19.578125 35.699219 C 19.765625 35.699219 19.945312 35.644531 20.101562 35.542969 C 21.257812 34.789062 21.8125 33.625 21.59375 32.429688 C 21.382812 31.265625 20.476562 30.339844 19.199219 29.945312 L 19.199219 26.699219 L 34.300781 26.699219 M 34.75 26 L 18.75 26 C 18.613281 26 18.5 26.113281 18.5 26.25 L 18.5 30.296875 C 18.5 30.414062 18.585938 30.511719 18.703125 30.539062 C 21.121094 31.070312 21.757812 33.628906 19.71875 34.957031 C 19.679688 34.984375 19.625 35 19.578125 35 L 18.75 35 C 18.613281 35 18.5 35.113281 18.5 35.25 L 18.5 37.25 C 18.5 37.386719 18.613281 37.5 18.75 37.5 L 32.25 37.5 C 32.386719 37.5 32.5 37.386719 32.5 37.25 L 32.5 35.25 C 32.5 35.113281 32.386719 35 32.25 35 L 31.597656 35 C 31.523438 35 31.449219 34.964844 31.402344 34.910156 C 29.421875 32.570312 31.621094 29.382812 34.8125 28.546875 C 34.921875 28.519531 35 28.421875 35 28.308594 L 35 26.25 C 35 26.113281 34.886719 26 34.75 26 Z M 34.75 26 "/>
<path style=" stroke:none;fill-rule:nonzero;fill:rgb(74.117649%,59.215689%,48.627451%);fill-opacity:1;" d="M 36.222656 22.433594 C 36.203125 22.433594 36.1875 22.433594 36.171875 22.429688 L 19.261719 18.445312 C 19.207031 18.433594 19.160156 18.398438 19.128906 18.351562 C 19.097656 18.300781 19.089844 18.246094 19.101562 18.1875 L 19.648438 15.878906 C 19.671875 15.785156 19.757812 15.714844 19.855469 15.714844 C 19.875 15.714844 19.890625 15.71875 19.90625 15.722656 L 36.816406 19.707031 C 36.929688 19.734375 37.003906 19.847656 36.976562 19.964844 L 36.429688 22.273438 C 36.40625 22.367188 36.320312 22.433594 36.222656 22.433594 Z M 36.222656 22.433594 "/>
<path style=" stroke:none;fill-rule:nonzero;fill:rgb(27.843139%,16.862746%,16.078432%);fill-opacity:1;" d="M 19.957031 16.09375 L 36.601562 20.015625 L 36.121094 22.058594 L 19.476562 18.136719 L 19.957031 16.09375 M 19.855469 15.367188 C 19.601562 15.367188 19.371094 15.539062 19.308594 15.800781 L 18.761719 18.109375 C 18.691406 18.410156 18.878906 18.714844 19.179688 18.785156 L 36.089844 22.769531 C 36.132812 22.78125 36.179688 22.785156 36.222656 22.785156 C 36.476562 22.785156 36.707031 22.609375 36.769531 22.351562 L 37.316406 20.042969 C 37.386719 19.738281 37.199219 19.433594 36.898438 19.363281 L 19.988281 15.378906 C 19.945312 15.371094 19.898438 15.367188 19.855469 15.367188 Z M 19.855469 15.367188 "/>
<path style=" stroke:none;fill-rule:nonzero;fill:rgb(80.000001%,80.000001%,80.000001%);fill-opacity:1;" d="M 15.421875 20.621094 L 16.875 14.578125 L 20.820312 11.535156 C 20.925781 11.457031 21.050781 11.414062 21.179688 11.414062 C 21.226562 11.414062 21.273438 11.421875 21.316406 11.429688 L 22.019531 11.597656 L 19.628906 21.617188 Z M 15.421875 20.621094 "/>
<path style=" stroke:none;fill-rule:nonzero;fill:rgb(27.843139%,16.862746%,16.078432%);fill-opacity:1;" d="M 21.179688 11.765625 C 21.199219 11.765625 21.21875 11.765625 21.234375 11.773438 L 21.578125 11.851562 L 19.367188 21.195312 L 15.863281 20.367188 L 17.183594 14.785156 L 21.035156 11.816406 C 21.078125 11.78125 21.128906 11.765625 21.179688 11.765625 M 21.179688 11.066406 C 20.976562 11.066406 20.773438 11.132812 20.609375 11.261719 L 16.652344 14.3125 C 16.59375 14.359375 16.550781 14.425781 16.535156 14.496094 L 15.097656 20.566406 C 15.054688 20.742188 15.164062 20.917969 15.34375 20.960938 L 19.566406 21.960938 C 19.589844 21.96875 19.617188 21.96875 19.640625 21.96875 C 19.792969 21.96875 19.925781 21.867188 19.960938 21.714844 L 22.34375 11.652344 C 22.386719 11.476562 22.277344 11.296875 22.097656 11.257812 L 21.394531 11.089844 C 21.324219 11.074219 21.253906 11.066406 21.179688 11.066406 Z M 21.179688 11.066406 "/>
<path style=" stroke:none;fill-rule:nonzero;fill:rgb(27.843139%,16.862746%,16.078432%);fill-opacity:1;" d="M 21.75 28.5 L 20.25 28.5 C 20.113281 28.5 20 28.386719 20 28.25 C 20 28.113281 20.113281 28 20.25 28 L 21.75 28 C 21.886719 28 22 28.113281 22 28.25 C 22 28.386719 21.886719 28.5 21.75 28.5 Z M 21.75 28.5 "/>
<path style=" stroke:none;fill-rule:nonzero;fill:rgb(27.843139%,16.862746%,16.078432%);fill-opacity:1;" d="M 26.25 28.5 L 22.75 28.5 C 22.613281 28.5 22.5 28.386719 22.5 28.25 C 22.5 28.113281 22.613281 28 22.75 28 L 26.25 28 C 26.386719 28 26.5 28.113281 26.5 28.25 C 26.5 28.386719 26.386719 28.5 26.25 28.5 Z M 26.25 28.5 "/>
<path style=" stroke:none;fill-rule:nonzero;fill:rgb(27.843139%,16.862746%,16.078432%);fill-opacity:1;" d="M 34.25 28.5 L 27.25 28.5 C 27.113281 28.5 27 28.386719 27 28.25 C 27 28.113281 27.113281 28 27.25 28 L 34.25 28 C 34.386719 28 34.5 28.113281 34.5 28.25 C 34.5 28.386719 34.386719 28.5 34.25 28.5 Z M 34.25 28.5 "/>
<path style=" stroke:none;fill-rule:nonzero;fill:rgb(27.843139%,16.862746%,16.078432%);fill-opacity:1;" d="M 24.324219 15.222656 C 24.3125 15.222656 24.304688 15.222656 24.292969 15.21875 L 22.734375 14.828125 C 22.667969 14.8125 22.628906 14.742188 22.644531 14.675781 C 22.660156 14.609375 22.726562 14.570312 22.796875 14.585938 L 24.351562 14.976562 C 24.421875 14.992188 24.460938 15.058594 24.445312 15.128906 C 24.429688 15.183594 24.378906 15.222656 24.324219 15.222656 Z M 24.324219 15.222656 "/>
<path style=" stroke:none;fill-rule:nonzero;fill:rgb(27.843139%,16.862746%,16.078432%);fill-opacity:1;" d="M 29 16.390625 C 28.988281 16.390625 28.980469 16.390625 28.96875 16.386719 L 25.332031 15.476562 C 25.265625 15.460938 25.226562 15.394531 25.242188 15.328125 C 25.257812 15.261719 25.328125 15.21875 25.394531 15.234375 L 29.03125 16.144531 C 29.097656 16.164062 29.136719 16.230469 29.121094 16.296875 C 29.105469 16.355469 29.054688 16.390625 29 16.390625 Z M 29 16.390625 "/>
<path style=" stroke:none;fill-rule:nonzero;fill:rgb(27.843139%,16.862746%,16.078432%);fill-opacity:1;" d="M 37.3125 18.472656 C 37.304688 18.472656 37.292969 18.472656 37.28125 18.46875 L 30.007812 16.648438 C 29.941406 16.632812 29.902344 16.566406 29.917969 16.496094 C 29.933594 16.429688 30.003906 16.390625 30.070312 16.40625 L 37.34375 18.226562 C 37.410156 18.242188 37.449219 18.3125 37.433594 18.378906 C 37.421875 18.433594 37.367188 18.472656 37.3125 18.472656 Z M 37.3125 18.472656 "/>
<path style=" stroke:none;fill-rule:nonzero;fill:rgb(27.843139%,16.862746%,16.078432%);fill-opacity:1;" d="M 29.75 35.5 L 24.75 35.5 C 24.613281 35.5 24.5 35.386719 24.5 35.25 C 24.5 35.113281 24.613281 35 24.75 35 L 29.75 35 C 29.886719 35 30 35.113281 30 35.25 C 30 35.386719 29.886719 35.5 29.75 35.5 Z M 29.75 35.5 "/>
<path style=" stroke:none;fill-rule:nonzero;fill:rgb(27.843139%,16.862746%,16.078432%);fill-opacity:1;" d="M 23.75 35.5 L 21.75 35.5 C 21.613281 35.5 21.5 35.386719 21.5 35.25 C 21.5 35.113281 21.613281 35 21.75 35 L 23.75 35 C 23.886719 35 24 35.113281 24 35.25 C 24 35.386719 23.886719 35.5 23.75 35.5 Z M 23.75 35.5 "/>
<path style=" stroke:none;fill-rule:nonzero;fill:rgb(27.843139%,16.862746%,16.078432%);fill-opacity:1;" d="M 22.230469 34.125 C 22.214844 34.125 22.195312 34.121094 22.179688 34.113281 C 22.117188 34.089844 22.085938 34.015625 22.113281 33.949219 C 22.511719 33.015625 22.453125 32.085938 21.945312 31.191406 C 21.910156 31.132812 21.933594 31.054688 21.992188 31.023438 C 22.050781 30.988281 22.128906 31.007812 22.164062 31.070312 C 22.710938 32.035156 22.773438 33.035156 22.34375 34.046875 C 22.324219 34.097656 22.277344 34.125 22.230469 34.125 Z M 22.230469 34.125 "/>
<path style=" stroke:none;fill-rule:nonzero;fill:rgb(27.843139%,16.862746%,16.078432%);fill-opacity:1;" d="M 21.445312 30.429688 C 21.414062 30.429688 21.378906 30.417969 21.355469 30.390625 C 20.898438 29.890625 20.453125 29.609375 20.449219 29.605469 C 20.390625 29.570312 20.371094 29.492188 20.410156 29.433594 C 20.445312 29.375 20.523438 29.355469 20.582031 29.394531 C 20.601562 29.40625 21.058594 29.695312 21.539062 30.21875 C 21.585938 30.273438 21.582031 30.351562 21.53125 30.398438 C 21.507812 30.417969 21.476562 30.429688 21.445312 30.429688 Z M 21.445312 30.429688 "/>
</g>
</svg>
