<svg fill="#000000" xmlns="http://www.w3.org/2000/svg"  viewBox="0 0 64 64" width="128px" height="128px"><path d="M 12.796875 1.453125 C 12.601563 1.476563 12.398438 1.523438 12.199219 1.601563 C 11.398438 1.898438 11 2.601563 11 3.398438 L 11 7.601563 L 9.699219 6.300781 C 9.300781 5.902344 8.699219 5.902344 8.300781 6.300781 C 7.902344 6.699219 7.902344 7.300781 8.300781 7.699219 L 9.601563 9 L 5.398438 9 C 4.601563 9 3.898438 9.5 3.601563 10.199219 C 3.300781 10.898438 3.398438 11.800781 4 12.402344 L 9.398438 17.800781 C 7.199219 21.800781 6 26.398438 6 31 C 6 40 10.5 48.101563 17.300781 53 L 14.199219 57.5 C 13.898438 58 14 58.601563 14.402344 58.902344 C 14.601563 59 14.800781 59.097656 15 59.097656 C 15.300781 59.097656 15.601563 59 15.800781 58.699219 L 19 54.199219 C 23.101563 56.699219 27.898438 58.097656 33 58.097656 C 38.101563 58.097656 42.898438 56.699219 47 54.199219 L 50.199219 58.699219 C 50.398438 59 50.699219 59.097656 51 59.097656 C 51.199219 59.097656 51.398438 59 51.597656 58.902344 C 52.097656 58.601563 52.199219 58 51.800781 57.5 L 48.699219 53 C 55.5 48.101563 60 40 60 31 C 60 16.101563 47.898438 4 33 4 C 28.398438 4 23.800781 5.199219 19.800781 7.398438 L 14.402344 2 C 13.949219 1.550781 13.386719 1.382813 12.796875 1.453125 Z M 13 3.398438 L 19.402344 9.800781 C 19.800781 10.199219 20 10.699219 20 11.199219 L 20 16.5 L 13 9.5 Z M 33 6 C 46.800781 6 58 17.199219 58 31 C 58 44.800781 46.800781 56 33 56 C 19.199219 56 8 44.800781 8 31 C 8 26.898438 9 22.902344 10.902344 19.300781 C 11.601563 19.800781 12.398438 20 13.199219 20 L 20.5 20 L 32.199219 31.699219 C 32.398438 31.898438 32.699219 32 32.902344 32 C 33.101563 32 33.398438 31.898438 33.597656 31.699219 C 34 31.300781 34 30.699219 33.597656 30.300781 L 22 18.597656 L 22 11.300781 C 22 10.5 21.699219 9.699219 21.300781 9 C 24.902344 7 28.898438 6 33 6 Z M 33 10 C 29.699219 10 26.5 10.800781 23.5 12.199219 C 23 12.398438 22.800781 13 23.097656 13.5 C 23.300781 14 23.902344 14.199219 24.402344 13.902344 C 27.101563 12.601563 29.902344 11.902344 32.902344 11.902344 C 43.402344 11.902344 51.902344 20.402344 51.902344 30.902344 C 51.902344 41.402344 43.402344 49.902344 32.902344 49.902344 C 22.402344 49.902344 13.902344 41.402344 13.902344 30.902344 C 13.902344 29.902344 14 29 14.097656 28 C 14.199219 27.5 13.800781 26.902344 13.300781 26.902344 C 12.800781 26.800781 12.199219 27.199219 12.199219 27.699219 C 12 28.699219 12 29.800781 12 30.800781 C 12 42.402344 21.398438 51.800781 33 51.800781 C 44.601563 51.800781 54 42.402344 54 30.800781 C 54 19.199219 44.601563 10 33 10 Z M 5.398438 11 L 11.597656 11 L 18.597656 18 L 13.300781 18 C 12.800781 18 12.300781 17.800781 11.902344 17.402344 Z M 33 17 C 30.800781 17 28.5 17.5 26.5 18.597656 C 26 18.898438 25.800781 19.5 26.097656 19.902344 C 26.398438 20.402344 27 20.601563 27.402344 20.300781 C 29.101563 19.402344 31 18.902344 32.902344 18.902344 C 39.601563 19 45 24.398438 45 31 C 45 35.5 42.5 39.597656 38.5 41.597656 C 38 41.898438 37.800781 42.5 38.097656 42.902344 C 38.300781 43.199219 38.601563 43.402344 39 43.402344 C 39.199219 43.402344 39.300781 43.402344 39.5 43.300781 C 44.101563 41 47 36.199219 47 31 C 47 23.300781 40.699219 17 33 17 Z M 15.214844 21.121094 C 14.824219 21.113281 14.449219 21.300781 14.300781 21.597656 C 14 22.300781 13.601563 23 13.402344 23.699219 C 13.101563 24.199219 13.402344 24.699219 13.902344 24.902344 C 14 24.902344 14.101563 25 14.300781 25 C 14.699219 25 15.097656 24.800781 15.199219 24.402344 C 15.398438 23.800781 15.699219 23.101563 16 22.5 C 16.199219 22 16 21.398438 15.597656 21.199219 C 15.472656 21.148438 15.34375 21.125 15.214844 21.121094 Z M 21.8125 23.464844 C 21.417969 23.417969 21.027344 23.625 20.800781 24 C 20.601563 24.5 20.800781 25.101563 21.199219 25.402344 L 22.902344 26.402344 C 23.101563 26.5 23.199219 26.5 23.402344 26.5 C 23.699219 26.5 24.101563 26.300781 24.300781 26 C 24.601563 25.5 24.402344 24.898438 23.902344 24.597656 L 22.199219 23.597656 C 22.074219 23.523438 21.945313 23.480469 21.8125 23.464844 Z M 33 24 C 32.601563 24 32.199219 24 31.800781 24.097656 C 31.300781 24.199219 30.898438 24.699219 31 25.300781 C 31.101563 25.800781 31.597656 26.199219 32.199219 26.097656 C 32.5 26.097656 32.800781 26 33 26 C 35.800781 26 38 28.199219 38 31 C 38 33.800781 35.800781 36 33 36 C 30.199219 36 28 33.800781 28 31 C 28 30.699219 28 30.398438 28.097656 30.199219 C 28.199219 29.699219 27.800781 29.101563 27.300781 29 C 26.699219 28.898438 26.199219 29.300781 26.097656 29.800781 C 26 30.199219 26 30.601563 26 31 C 26 34.898438 29.101563 38 33 38 C 36.898438 38 40 34.898438 40 31 C 40 27.101563 36.898438 24 33 24 Z M 20 30 C 19.398438 30 19 30.398438 19 31 C 19 31.601563 19.398438 32 20 32 L 22 32 C 22.601563 32 23 31.601563 23 31 C 23 30.398438 22.601563 30 22 30 Z M 23.34375 35.507813 C 23.21875 35.519531 23.101563 35.550781 23 35.597656 L 21.300781 36.597656 C 20.800781 36.898438 20.699219 37.5 20.902344 38 C 21.101563 38.300781 21.402344 38.5 21.800781 38.5 C 22 38.5 22.101563 38.5 22.300781 38.402344 L 24 37.402344 C 24.5 37.101563 24.601563 36.5 24.402344 36 C 24.175781 35.625 23.726563 35.476563 23.34375 35.507813 Z M 27.613281 39.464844 C 27.21875 39.417969 26.824219 39.625 26.597656 40 L 25.597656 41.699219 C 25.398438 42.199219 25.5 42.800781 26 43.097656 C 26.199219 43.199219 26.300781 43.199219 26.5 43.199219 C 26.800781 43.199219 27.199219 43 27.402344 42.699219 L 28.402344 41 C 28.699219 40.5 28.5 39.898438 28 39.597656 C 27.875 39.523438 27.746094 39.480469 27.613281 39.464844 Z M 33 41 C 32.398438 41 32 41.398438 32 42 L 32 44 C 32 44.601563 32.398438 45 33 45 C 33.601563 45 34 44.601563 34 44 L 34 42 C 34 41.398438 33.601563 41 33 41 Z"/></svg>