<?xml version="1.0" encoding="UTF-8"?>
<svg xmlns="http://www.w3.org/2000/svg" xmlns:xlink="http://www.w3.org/1999/xlink" width="100pt" height="100pt" viewBox="0 0 100 100" version="1.1">
<g id="surface28837615">
<rect x="0" y="0" width="100" height="100" style="fill:rgb(0%,0%,0%);fill-opacity:1;stroke:none;"/>
<path style=" stroke:none;fill-rule:nonzero;fill:rgb(100%,100%,100%);fill-opacity:1;" d="M 36.984375 9 C 36.832031 9.003906 36.683594 9.039062 36.550781 9.109375 C 36.550781 9.109375 28.410156 13.109375 26.484375 20.820312 L 23.757812 31.722656 C 23.292969 33.570312 24.265625 35.398438 25.914062 36.210938 L 25.507812 37.847656 C 25.367188 38.398438 24.839844 38.714844 24.292969 38.574219 C 24.292969 38.574219 24.289062 38.574219 24.289062 38.574219 L 24.230469 38.558594 C 23.695312 38.429688 23.152344 38.753906 23.019531 39.289062 L 21.03125 47.253906 C 20.964844 47.511719 21.003906 47.785156 21.140625 48.011719 C 21.277344 48.242188 21.5 48.40625 21.757812 48.46875 L 31.765625 50.96875 C 32.023438 51.035156 32.296875 50.996094 32.523438 50.859375 C 32.75 50.722656 32.914062 50.5 32.980469 50.242188 L 34.972656 42.277344 C 35.035156 42.019531 34.996094 41.746094 34.859375 41.519531 C 34.722656 41.292969 34.5 41.128906 34.242188 41.066406 L 34.175781 41.046875 C 33.625 40.910156 33.308594 40.382812 33.449219 39.832031 L 33.816406 38.359375 L 37.339844 39.238281 C 37.460938 39.296875 37.59375 39.328125 37.726562 39.335938 L 76.257812 48.972656 C 76.515625 49.035156 76.789062 48.996094 77.015625 48.859375 C 77.242188 48.722656 77.40625 48.5 77.472656 48.242188 L 79.289062 40.96875 C 79.421875 40.429688 79.097656 39.886719 78.5625 39.753906 L 39.941406 30.097656 C 39.898438 30.082031 39.855469 30.070312 39.808594 30.0625 C 38.882812 29.828125 37.957031 29.59375 37.277344 28.980469 C 36.589844 28.359375 36 27.316406 36 25 C 36 19.445312 39.832031 13.554688 39.832031 13.554688 C 40.054688 13.21875 40.054688 12.78125 39.832031 12.445312 L 37.832031 9.445312 C 37.644531 9.160156 37.324219 8.992188 36.980469 9 Z M 36.730469 11.398438 L 37.839844 13.058594 C 37.277344 13.917969 34 19.066406 34 25 C 34 27.683594 34.789062 29.429688 35.9375 30.464844 C 36.746094 31.195312 37.609375 31.507812 38.394531 31.734375 L 37.050781 37.105469 L 33.332031 36.175781 C 33.316406 36.171875 33.300781 36.167969 33.285156 36.164062 L 27.398438 34.695312 C 27.386719 34.691406 27.375 34.6875 27.363281 34.683594 L 27.328125 34.675781 L 27.152344 34.628906 C 26.066406 34.359375 25.425781 33.289062 25.699219 32.207031 L 28.425781 21.300781 C 29.910156 15.355469 35.59375 12.039062 36.730469 11.398438 Z M 40.324219 32.257812 L 77.105469 41.453125 L 75.773438 46.789062 L 38.992188 37.589844 Z M 28.058594 35.890625 L 32.117188 36.90625 L 31.507812 39.351562 C 31.324219 40.078125 31.441406 40.808594 31.761719 41.433594 L 26.234375 40.054688 C 26.816406 39.652344 27.261719 39.0625 27.445312 38.335938 Z M 23.8125 40.515625 C 23.9375 40.550781 24.0625 40.558594 24.191406 40.570312 C 24.207031 40.578125 24.222656 40.582031 24.242188 40.585938 L 33.285156 42.84375 C 33.289062 42.84375 33.292969 42.84375 33.296875 42.847656 C 33.425781 42.898438 33.550781 42.953125 33.691406 42.988281 L 32.789062 42.761719 L 31.28125 48.785156 L 23.210938 46.769531 L 24.71875 40.738281 Z M 33 56 C 32.449219 56 32 56.449219 32 57 L 32 58 L 19 58 C 18.695312 58 18.410156 58.136719 18.21875 58.375 C 18.03125 58.609375 17.957031 58.921875 18.023438 59.214844 C 18.023438 59.214844 18.585938 61.726562 20.753906 64.164062 C 22.796875 66.464844 26.339844 68.734375 32 68.976562 L 32 70 C 32 70.550781 32.449219 71 33 71 C 36.945312 71 40 73.75 40 77 C 40 80.25 36.945312 83 33 83 C 32.449219 83 32 83.449219 32 84 L 32 88 C 32 88.550781 32.449219 89 33 89 L 44 89 C 44.292969 89 44.570312 88.871094 44.761719 88.648438 C 45.964844 87.238281 48.964844 86 52.5 86 C 56.035156 86 59.035156 87.238281 60.238281 88.648438 C 60.429688 88.871094 60.707031 89 61 89 L 72 89 C 72.550781 89 73 88.550781 73 88 L 73 84 C 73 83.449219 72.550781 83 72 83 C 68.054688 83 65 80.25 65 77 C 65 72.601562 68.992188 67.410156 79.234375 64.972656 C 79.683594 64.863281 80 64.460938 80 64 L 80 62 L 81 62 C 81.550781 62 82 61.550781 82 61 L 82 57 C 82 56.449219 81.550781 56 81 56 Z M 34 58 L 80 58 L 80 60 L 79 60 C 78.449219 60 78 60.449219 78 61 L 78 63.296875 C 69.710938 65.472656 64.964844 69.597656 63.496094 74 L 58.5 74 C 58.320312 73.996094 58.152344 74.09375 58.0625 74.246094 C 57.96875 74.402344 57.96875 74.597656 58.0625 74.753906 C 58.152344 74.90625 58.320312 75.003906 58.5 75 L 63.222656 75 C 63.074219 75.664062 63 76.332031 63 77 C 63 80.128906 65.023438 82.714844 67.90625 84 L 62.816406 84 C 62.648438 83.582031 62.164062 82.457031 60.855469 81.144531 C 59.273438 79.566406 56.625 78 52.5 78 C 48.375 78 45.726562 79.566406 44.144531 81.144531 C 42.835938 82.457031 42.351562 83.582031 42.183594 84 L 37.09375 84 C 39.976562 82.714844 42 80.128906 42 77 C 42 76.304688 41.890625 75.636719 41.703125 75 L 55.5 75 C 55.679688 75.003906 55.847656 74.90625 55.9375 74.753906 C 56.03125 74.597656 56.03125 74.402344 55.9375 74.246094 C 55.847656 74.09375 55.679688 73.996094 55.5 74 L 41.328125 74 C 40.089844 71.371094 37.277344 69.515625 34 69.175781 Z M 20.414062 60 L 32 60 L 32 66.953125 C 26.894531 66.71875 23.96875 64.773438 22.246094 62.835938 C 21.304688 61.773438 20.746094 60.761719 20.414062 60 Z M 35.5 60 C 35.320312 59.996094 35.152344 60.09375 35.0625 60.246094 C 34.96875 60.402344 34.96875 60.597656 35.0625 60.753906 C 35.152344 60.90625 35.320312 61.003906 35.5 61 L 67.5 61 C 67.679688 61.003906 67.847656 60.90625 67.9375 60.753906 C 68.03125 60.597656 68.03125 60.402344 67.9375 60.246094 C 67.847656 60.09375 67.679688 59.996094 67.5 60 Z M 69.5 60 C 69.320312 59.996094 69.152344 60.09375 69.0625 60.246094 C 68.96875 60.402344 68.96875 60.597656 69.0625 60.753906 C 69.152344 60.90625 69.320312 61.003906 69.5 61 L 73.5 61 C 73.679688 61.003906 73.847656 60.90625 73.9375 60.753906 C 74.03125 60.597656 74.03125 60.402344 73.9375 60.246094 C 73.847656 60.09375 73.679688 59.996094 73.5 60 Z M 75.5 60 C 75.320312 59.996094 75.152344 60.09375 75.0625 60.246094 C 74.96875 60.402344 74.96875 60.597656 75.0625 60.753906 C 75.152344 60.90625 75.320312 61.003906 75.5 61 L 76.5 61 C 76.679688 61.003906 76.847656 60.90625 76.9375 60.753906 C 77.03125 60.597656 77.03125 60.402344 76.9375 60.246094 C 76.847656 60.09375 76.679688 59.996094 76.5 60 Z M 52.5 79 C 56.375 79 58.726562 80.433594 60.144531 81.855469 C 61.566406 83.273438 62.023438 84.660156 62.023438 84.660156 C 62.09375 84.863281 62.285156 85 62.5 85 L 71 85 L 71 87 L 61.351562 87 C 59.457031 85.105469 56.226562 84 52.5 84 C 48.773438 84 45.542969 85.105469 43.648438 87 L 34 87 L 34 85 L 42.5 85 C 42.714844 85 42.90625 84.863281 42.976562 84.660156 C 42.976562 84.660156 43.433594 83.273438 44.855469 81.855469 C 46.273438 80.433594 48.625 79 52.5 79 Z M 52.5 79 "/>
</g>
</svg>
