<svg fill="#000000" xmlns="http://www.w3.org/2000/svg"  viewBox="0 0 100 100" width="200px" height="200px"><path d="M 60 13 A 1.0001 1.0001 0 0 0 59.292969 13.292969 L 23.292969 49.292969 A 1.0001 1.0001 0 0 0 23.292969 50.707031 L 59.292969 86.707031 A 1.0001 1.0001 0 0 0 60 87 L 76 87 A 1.0001 1.0001 0 0 0 76.707031 85.292969 L 41.414062 50 L 76.707031 14.707031 A 1.0001 1.0001 0 0 0 76 13 L 60 13 z M 60.414062 15 L 73.585938 15 L 39.292969 49.292969 A 1.0001 1.0001 0 0 0 39.292969 50.707031 L 73.585938 85 L 60.414062 85 L 25.414062 50 L 60.414062 15 z M 58.990234 19.996094 A 0.50005 0.50005 0 0 0 58.646484 20.146484 L 42.146484 36.646484 A 0.50005 0.50005 0 1 0 42.853516 37.353516 L 59.353516 20.853516 A 0.50005 0.50005 0 0 0 58.990234 19.996094 z M 36.990234 41.996094 A 0.50005 0.50005 0 0 0 36.646484 42.146484 L 33.146484 45.646484 A 0.50005 0.50005 0 1 0 33.853516 46.353516 L 37.353516 42.853516 A 0.50005 0.50005 0 0 0 36.990234 41.996094 z M 30.990234 47.996094 A 0.50005 0.50005 0 0 0 30.646484 48.146484 L 29.146484 49.646484 A 0.50005 0.50005 0 1 0 29.853516 50.353516 L 31.353516 48.853516 A 0.50005 0.50005 0 0 0 30.990234 47.996094 z M 34.994141 54.994141 A 0.50005 0.50005 0 0 0 34.646484 55.853516 L 58.646484 79.853516 A 0.50005 0.50005 0 1 0 59.353516 79.146484 L 35.353516 55.146484 A 0.50005 0.50005 0 0 0 34.994141 54.994141 z"/></svg>