<?xml version="1.0" encoding="UTF-8"?>
<svg xmlns="http://www.w3.org/2000/svg" xmlns:xlink="http://www.w3.org/1999/xlink" width="100pt" height="100pt" viewBox="0 0 100 100" version="1.1">
<g id="surface41543597">
<path style=" stroke:none;fill-rule:nonzero;fill:rgb(0%,0%,0%);fill-opacity:1;" d="M 28.730469 10 C 23.371094 10 19 14.359375 19 19.730469 L 19 81.269531 C 19 86.628906 23.371094 91 28.730469 91 L 69.144531 91 C 71.894531 93.476562 75.515625 95 79.5 95 C 88.046875 95 95 88.046875 95 79.5 C 95 71.804688 89.359375 65.421875 82 64.222656 L 82 31.25 C 82 30.980469 81.902344 30.730469 81.710938 30.539062 L 61.460938 10.289062 C 61.269531 10.097656 61.019531 10 60.75 10 Z M 28.730469 12 L 60 12 L 60 22.480469 C 60 27.730469 64.269531 32 69.511719 32 L 80 32 L 80 64.023438 C 79.832031 64.019531 79.667969 64 79.5 64 C 78.292969 64 77.128906 64.152344 76 64.414062 L 76 59.5 C 76 59.21875 75.769531 59 75.5 59 C 75.21875 59 75 59.21875 75 59.5 L 75 64.671875 C 73.316406 65.183594 71.761719 65.984375 70.371094 67 L 63.5 67 C 63.21875 67 63 67.21875 63 67.5 C 63 67.769531 63.21875 68 63.5 68 L 69.144531 68 C 67.332031 69.632812 65.910156 71.683594 65.027344 74 L 56.5 74 C 56.21875 74 56 74.21875 56 74.5 C 56 74.769531 56.21875 75 56.5 75 L 64.671875 75 C 64.238281 76.425781 64 77.933594 64 79.5 C 64 81.066406 64.238281 82.574219 64.671875 84 L 32.660156 84 C 28.988281 84 26 81 26 77.308594 L 26 24.648438 C 26 22.511719 27.039062 20.480469 28.777344 19.222656 C 29.917969 18.390625 31.261719 17.960938 32.660156 17.960938 C 32.929688 17.960938 33.160156 17.730469 33.160156 17.460938 C 33.160156 17.179688 32.929688 16.960938 32.660156 16.960938 C 31.050781 16.960938 29.5 17.460938 28.191406 18.410156 C 26.191406 19.859375 25 22.191406 25 24.648438 L 25 77.308594 C 25 81.550781 28.429688 85 32.660156 85 L 65.027344 85 C 65.582031 86.449219 66.339844 87.796875 67.277344 89 L 28.730469 89 C 24.46875 89 21 85.53125 21 81.269531 L 21 19.730469 C 21 15.46875 24.46875 12 28.730469 12 Z M 61 12.660156 L 79.339844 31 L 69.511719 31 C 64.820312 31 61 27.179688 61 22.480469 Z M 30.5 39 C 30.21875 39 30 39.21875 30 39.5 C 30 39.769531 30.21875 40 30.5 40 L 51.5 40 C 51.78125 40 52 39.769531 52 39.5 C 52 39.21875 51.78125 39 51.5 39 Z M 54.5 39 C 54.21875 39 54 39.21875 54 39.5 L 54 53.5 C 54 53.769531 54.21875 54 54.5 54 C 54.769531 54 55 53.769531 55 53.5 L 55 40 L 70 40 L 70 55 L 58.5 55 C 58.21875 55 58 55.21875 58 55.5 C 58 55.769531 58.21875 56 58.5 56 L 70.5 56 C 70.78125 56 71 55.769531 71 55.5 L 71 39.5 C 71 39.21875 70.769531 39 70.5 39 Z M 30.5 46 C 30.21875 46 30 46.21875 30 46.5 C 30 46.769531 30.21875 47 30.5 47 L 51.5 47 C 51.78125 47 52 46.769531 52 46.5 C 52 46.21875 51.78125 46 51.5 46 Z M 75.5 46 C 75.21875 46 75 46.21875 75 46.5 L 75 49.5 C 75 49.769531 75.21875 50 75.5 50 C 75.78125 50 76 49.769531 76 49.5 L 76 46.5 C 76 46.21875 75.769531 46 75.5 46 Z M 75.5 51 C 75.21875 51 75 51.21875 75 51.5 L 75 57.5 C 75 57.769531 75.21875 58 75.5 58 C 75.78125 58 76 57.769531 76 57.5 L 76 51.5 C 76 51.21875 75.769531 51 75.5 51 Z M 30.5 53 C 30.21875 53 30 53.21875 30 53.5 C 30 53.769531 30.21875 54 30.5 54 L 51.5 54 C 51.78125 54 52 53.769531 52 53.5 C 52 53.21875 51.78125 53 51.5 53 Z M 30.5 60 C 30.21875 60 30 60.21875 30 60.5 C 30 60.769531 30.21875 61 30.5 61 L 43.5 61 C 43.78125 61 44 60.769531 44 60.5 C 44 60.21875 43.78125 60 43.5 60 Z M 46.5 60 C 46.21875 60 46 60.21875 46 60.5 C 46 60.769531 46.21875 61 46.5 61 L 70.5 61 C 70.78125 61 71 60.769531 71 60.5 C 71 60.21875 70.769531 60 70.5 60 Z M 79.5 66 C 86.945312 66 93 72.054688 93 79.5 C 93 86.945312 86.945312 93 79.5 93 C 72.054688 93 66 86.945312 66 79.5 C 66 72.054688 72.054688 66 79.5 66 Z M 30.5 67 C 30.21875 67 30 67.21875 30 67.5 C 30 67.769531 30.21875 68 30.5 68 L 47.5 68 C 47.78125 68 48 67.769531 48 67.5 C 48 67.21875 47.78125 67 47.5 67 Z M 50.5 67 C 50.21875 67 50 67.21875 50 67.5 C 50 67.769531 50.21875 68 50.5 68 L 61.5 68 C 61.78125 68 62 67.769531 62 67.5 C 62 67.21875 61.78125 67 61.5 67 Z M 79.5 71 C 79.222656 71 79 71.222656 79 71.5 L 79 79 L 71.59375 79 C 71.316406 79 71.09375 79.222656 71.09375 79.5 C 71.09375 79.777344 71.316406 80 71.59375 80 L 79 80 L 79 87.5 C 79 87.777344 79.222656 88 79.5 88 C 79.777344 88 80 87.777344 80 87.5 L 80 80 L 87.5 80 C 87.777344 80 88 79.777344 88 79.5 C 88 79.222656 87.777344 79 87.5 79 L 80 79 L 80 71.5 C 80 71.222656 79.777344 71 79.5 71 Z M 30.5 74 C 30.21875 74 30 74.21875 30 74.5 C 30 74.769531 30.21875 75 30.5 75 L 54.5 75 C 54.78125 75 55 74.769531 55 74.5 C 55 74.21875 54.78125 74 54.5 74 Z M 30.5 74 "/>
</g>
</svg>
