<?xml version="1.0" encoding="UTF-8"?>
<svg xmlns="http://www.w3.org/2000/svg" xmlns:xlink="http://www.w3.org/1999/xlink" width="128pt" height="128pt" viewBox="0 0 128 128" version="1.1">
<g id="surface40496900">
<path style=" stroke:none;fill-rule:nonzero;fill:rgb(100%,100%,100%);fill-opacity:1;" d="M 114 4 L 24 4 C 18.5 4 14 8.5 14 14 L 14 41.601562 C 14 60.5 11.699219 79.300781 7.101562 97.601562 L 6.5 100.101562 C 5.199219 105.101562 9.101562 110 14.300781 110 L 24 110 L 24 124 L 114 124 C 119.5 124 124 119.5 124 114 L 124 14 C 124 8.5 119.5 4 114 4 Z M 114 4 "/>
<path style=" stroke:none;fill-rule:nonzero;fill:rgb(100%,100%,100%);fill-opacity:1;" d="M 24 4 C 18.5 4 14 8.5 14 14 L 14 41.601562 C 14 60.5 11.699219 79.300781 7.101562 97.601562 L 6.5 100.101562 C 5.199219 105.101562 9.101562 110 14.300781 110 L 90.601562 110 C 96.101562 110 100.898438 106.300781 102.199219 100.898438 L 103 97.601562 C 107.601562 79.300781 109.898438 60.5 109.898438 41.601562 L 109.898438 21 C 109.898438 17.101562 113 14 116.898438 14 C 120.800781 14 123.898438 17.101562 123.898438 21 L 123.898438 4 Z M 24 4 "/>
<path style=" stroke:none;fill-rule:nonzero;fill:rgb(90.588236%,29.803923%,23.529412%);fill-opacity:1;" d="M 60.699219 77.398438 C 56.300781 77.398438 53.300781 73.601562 50.601562 70.300781 C 49.300781 68.601562 47.300781 66.199219 46.101562 65.898438 C 45.300781 66.601562 43.898438 68.601562 42.699219 70.300781 C 41.800781 71.5 40.800781 72.898438 39.699219 74.300781 C 38.699219 75.601562 36.800781 75.800781 35.5 74.800781 C 34.199219 73.800781 34 71.898438 35 70.601562 C 36 69.300781 37 67.898438 37.898438 66.699219 C 41 62.5 42.601562 60.199219 45.101562 59.898438 C 49.601562 59.300781 52.601562 63.101562 55.300781 66.5 C 57.101562 68.699219 59.398438 71.5 60.898438 71.398438 C 62 71.300781 63.398438 69.898438 64.800781 68.601562 C 67 66.5 69.800781 63.800781 73.699219 64.199219 C 74.800781 64.300781 75.898438 64.601562 77 65.199219 C 78.5 65.898438 79.101562 67.699219 78.398438 69.199219 C 77.699219 70.699219 75.898438 71.300781 74.398438 70.601562 C 73.898438 70.398438 73.5 70.199219 73.199219 70.199219 C 72.101562 70.101562 70.601562 71.5 69.101562 73 C 67.101562 74.898438 64.898438 77.101562 61.699219 77.398438 C 61.300781 77.398438 61 77.398438 60.699219 77.398438 Z M 46.398438 65.699219 Z M 46.398438 65.699219 "/>
<path style=" stroke:none;fill-rule:nonzero;fill:rgb(90.588236%,29.803923%,23.529412%);fill-opacity:1;" d="M 89 74 C 89 75.65625 87.65625 77 86 77 C 84.34375 77 83 75.65625 83 74 C 83 72.34375 84.34375 71 86 71 C 87.65625 71 89 72.34375 89 74 Z M 89 74 "/>
<path style=" stroke:none;fill-rule:nonzero;fill:rgb(0%,0%,0%);fill-opacity:1;" d="M 114 127 L 24 127 C 22.300781 127 21 125.699219 21 124 C 21 122.300781 22.300781 121 24 121 L 114 121 C 117.898438 121 121 117.898438 121 114 L 121 14 C 121 10.101562 117.898438 7 114 7 L 24 7 C 20.101562 7 17 10.101562 17 14 L 17 41.601562 C 17 60.699219 14.699219 79.800781 10 98.300781 L 9.398438 100.800781 C 9 102.300781 9.398438 103.898438 10.300781 105.101562 C 11.199219 106.300781 12.699219 107 14.199219 107 L 90.601562 107 C 94.699219 107 98.300781 104.199219 99.300781 100.199219 L 100.101562 96.898438 C 104.601562 78.800781 106.898438 60.199219 106.898438 41.601562 L 106.898438 17 C 106.898438 15.300781 108.199219 14 109.898438 14 C 111.601562 14 112.898438 15.300781 112.898438 17 L 112.898438 41.601562 C 112.898438 60.699219 110.601562 79.800781 105.898438 98.300781 L 105.101562 101.601562 C 103.398438 108.300781 97.398438 113 90.5 113 L 14.199219 113 C 10.800781 113 7.601562 111.5 5.5 108.800781 C 3.398438 106.101562 2.699219 102.699219 3.5 99.398438 L 4.101562 96.898438 C 8.699219 78.800781 11 60.199219 11 41.601562 L 11 14 C 11 6.800781 16.800781 1 24 1 L 114 1 C 121.199219 1 127 6.800781 127 14 L 127 114 C 127 121.199219 121.199219 127 114 127 Z M 114 127 "/>
</g>
</svg>
