<?xml version="1.0" encoding="UTF-8"?>
<svg xmlns="http://www.w3.org/2000/svg" xmlns:xlink="http://www.w3.org/1999/xlink" width="128pt" height="128pt" viewBox="0 0 128 128" version="1.1">
<g id="surface41564951">
<path style=" stroke:none;fill-rule:nonzero;fill:rgb(90.588236%,29.803923%,23.529412%);fill-opacity:1;" d="M 70.011719 7.996094 C 69.5 7.996094 68.992188 8.191406 68.601562 8.578125 L 60.601562 16.578125 C 59.824219 17.359375 59.824219 18.617188 60.601562 19.398438 L 97.179688 56 L 6 56 C 4.894531 56 4 56.894531 4 58 L 4 70 C 4 71.105469 4.894531 72 6 72 L 97.179688 72 L 60.578125 108.578125 C 59.800781 109.359375 59.800781 110.617188 60.578125 111.398438 L 68.578125 119.398438 C 69.359375 120.175781 70.617188 120.175781 71.398438 119.398438 L 125.398438 65.398438 C 126.179688 64.625 126.191406 63.363281 125.421875 62.578125 L 71.421875 8.578125 C 71.03125 8.191406 70.523438 7.996094 70.011719 7.996094 Z M 70 12.820312 L 121.179688 64 L 70 115.179688 L 64.820312 110 L 103.421875 71.421875 C 104.207031 70.644531 104.210938 69.378906 103.433594 68.59375 C 103.054688 68.210938 102.539062 67.996094 102 68 L 8 68 L 8 60 L 102 60 C 103.105469 60.007812 104.003906 59.117188 104.011719 58.011719 C 104.015625 57.472656 103.804688 56.957031 103.421875 56.578125 L 64.820312 18 Z M 10 76 C 8.894531 76 8 76.894531 8 78 L 8 82 C 8 83.105469 8.894531 84 10 84 C 11.105469 84 12 83.105469 12 82 L 12 78 C 12 76.894531 11.105469 76 10 76 Z M 20 76 C 18.894531 76 18 76.894531 18 78 L 18 82 C 18 83.105469 18.894531 84 20 84 C 21.105469 84 22 83.105469 22 82 L 22 78 C 22 76.894531 21.105469 76 20 76 Z M 30 76 C 28.894531 76 28 76.894531 28 78 L 28 82 C 28 83.105469 28.894531 84 30 84 C 31.105469 84 32 83.105469 32 82 L 32 78 C 32 76.894531 31.105469 76 30 76 Z M 40 76 C 38.894531 76 38 76.894531 38 78 L 38 82 C 38 83.105469 38.894531 84 40 84 C 41.105469 84 42 83.105469 42 82 L 42 78 C 42 76.894531 41.105469 76 40 76 Z M 50 76 C 48.894531 76 48 76.894531 48 78 L 48 82 C 48 83.105469 48.894531 84 50 84 C 51.105469 84 52 83.105469 52 82 L 52 78 C 52 76.894531 51.105469 76 50 76 Z M 60 76 C 58.894531 76 58 76.894531 58 78 L 58 82 C 58 83.105469 58.894531 84 60 84 C 61.105469 84 62 83.105469 62 82 L 62 78 C 62 76.894531 61.105469 76 60 76 Z M 70 76 C 68.894531 76 68 76.894531 68 78 L 68 82 C 68 83.105469 68.894531 84 70 84 C 71.105469 84 72 83.105469 72 82 L 72 78 C 72 76.894531 71.105469 76 70 76 Z M 80 76 C 78.894531 76 78 76.894531 78 78 L 78 82 C 78 83.105469 78.894531 84 80 84 C 81.105469 84 82 83.105469 82 82 L 82 78 C 82 76.894531 81.105469 76 80 76 Z M 80 76 "/>
</g>
</svg>
