<?xml version="1.0" encoding="UTF-8"?>
<svg xmlns="http://www.w3.org/2000/svg" xmlns:xlink="http://www.w3.org/1999/xlink" width="100pt" height="100pt" viewBox="0 0 100 100" version="1.1">
<g id="surface41581303">
<path style=" stroke:none;fill-rule:nonzero;fill:rgb(90.588236%,29.803923%,23.529412%);fill-opacity:1;" d="M 44 12 C 42.355469 12 41 13.355469 41 15 L 41 41 L 15 41 C 13.355469 41 12 42.355469 12 44 L 12 56 C 12 57.644531 13.355469 59 15 59 L 41 59 L 41 85 C 41 86.644531 42.355469 88 44 88 L 56 88 C 57.644531 88 59 86.644531 59 85 L 59 59 L 85 59 C 86.644531 59 88 57.644531 88 56 L 88 44 C 88 42.355469 86.644531 41 85 41 L 59 41 L 59 15 C 59 13.355469 57.644531 12 56 12 Z M 44 14 L 56 14 C 56.566406 14 57 14.433594 57 15 L 57 43 L 85 43 C 85.566406 43 86 43.433594 86 44 L 86 56 C 86 56.566406 85.566406 57 85 57 L 57 57 L 57 85 C 57 85.566406 56.566406 86 56 86 L 44 86 C 43.433594 86 43 85.566406 43 85 L 43 57 L 15 57 C 14.433594 57 14 56.566406 14 56 L 14 44 C 14 43.433594 14.433594 43 15 43 L 43 43 L 43 15 C 43 14.433594 43.433594 14 44 14 Z M 53.492188 16.992188 C 53.359375 16.996094 53.234375 17.050781 53.140625 17.144531 C 53.046875 17.238281 52.996094 17.367188 53 17.5 L 53 46.5 C 53 46.777344 53.222656 47 53.5 47 L 64.5 47 C 64.679688 47.003906 64.847656 46.90625 64.9375 46.753906 C 65.03125 46.597656 65.03125 46.402344 64.9375 46.246094 C 64.847656 46.09375 64.679688 45.996094 64.5 46 L 54 46 L 54 17.5 C 54.003906 17.363281 53.949219 17.234375 53.855469 17.136719 C 53.757812 17.042969 53.628906 16.988281 53.492188 16.992188 Z M 67.5 46 C 67.320312 45.996094 67.152344 46.09375 67.0625 46.246094 C 66.96875 46.402344 66.96875 46.597656 67.0625 46.753906 C 67.152344 46.90625 67.320312 47.003906 67.5 47 L 77.5 47 C 77.679688 47.003906 77.847656 46.90625 77.9375 46.753906 C 78.03125 46.597656 78.03125 46.402344 77.9375 46.246094 C 77.847656 46.09375 77.679688 45.996094 77.5 46 Z M 80.5 46 C 80.320312 45.996094 80.152344 46.09375 80.0625 46.246094 C 79.96875 46.402344 79.96875 46.597656 80.0625 46.753906 C 80.152344 46.90625 80.320312 47.003906 80.5 47 L 82.5 47 C 82.679688 47.003906 82.847656 46.90625 82.9375 46.753906 C 83.03125 46.597656 83.03125 46.402344 82.9375 46.246094 C 82.847656 46.09375 82.679688 45.996094 82.5 46 Z M 80.5 46 "/>
</g>
</svg>
