<?xml version="1.0" encoding="UTF-8"?>
<svg xmlns="http://www.w3.org/2000/svg" xmlns:xlink="http://www.w3.org/1999/xlink" width="100pt" height="100pt" viewBox="0 0 100 100" version="1.1">
<g id="surface27387544">
<path style=" stroke:none;fill-rule:nonzero;fill:rgb(94.509804%,73.725492%,9.803922%);fill-opacity:1;" d="M 79 14 C 79 14.550781 78.550781 15 78 15 C 77.449219 15 77 14.550781 77 14 C 77 13.449219 77.449219 13 78 13 C 78.550781 13 79 13.449219 79 14 Z M 79 14 "/>
<path style=" stroke:none;fill-rule:nonzero;fill:rgb(83.92157%,26.274511%,8.235294%);fill-opacity:1;" d="M 88 50 C 88 70.988281 70.988281 88 50 88 C 29.011719 88 12 70.988281 12 50 C 12 29.011719 29.011719 12 50 12 C 70.988281 12 88 29.011719 88 50 Z M 88 50 "/>
<path style=" stroke:none;fill-rule:nonzero;fill:rgb(94.509804%,73.725492%,9.803922%);fill-opacity:1;" d="M 88 16 C 88 18.210938 86.210938 20 84 20 C 81.789062 20 80 18.210938 80 16 C 80 13.789062 81.789062 12 84 12 C 86.210938 12 88 13.789062 88 16 Z M 88 16 "/>
<path style=" stroke:none;fill-rule:nonzero;fill:rgb(86.666667%,28.627452%,33.333334%);fill-opacity:1;" d="M 16 26 C 16 27.105469 15.105469 28 14 28 C 12.894531 28 12 27.105469 12 26 C 12 24.894531 12.894531 24 14 24 C 15.105469 24 16 24.894531 16 26 Z M 16 26 "/>
<path style=" stroke:none;fill-rule:nonzero;fill:rgb(98.431373%,80.392158%,34.901962%);fill-opacity:1;" d="M 80 77 C 80 78.105469 79.105469 79 78 79 C 76.894531 79 76 78.105469 76 77 C 76 75.894531 76.894531 75 78 75 C 79.105469 75 80 75.894531 80 77 Z M 80 77 "/>
<path style=" stroke:none;fill-rule:nonzero;fill:rgb(98.431373%,80.392158%,34.901962%);fill-opacity:1;" d="M 21 78 C 21 80.210938 19.210938 82 17 82 C 14.789062 82 13 80.210938 13 78 C 13 75.789062 14.789062 74 17 74 C 19.210938 74 21 75.789062 21 78 Z M 21 78 "/>
<path style=" stroke:none;fill-rule:nonzero;fill:rgb(86.666667%,28.627452%,33.333334%);fill-opacity:1;" d="M 26 83 C 26 84.105469 25.105469 85 24 85 C 22.894531 85 22 84.105469 22 83 C 22 81.894531 22.894531 81 24 81 C 25.105469 81 26 81.894531 26 83 Z M 26 83 "/>
<path style=" stroke:none;fill-rule:nonzero;fill:rgb(100%,100%,100%);fill-opacity:1;" d="M 66.964844 78.515625 C 66.964844 79.886719 65.855469 81 64.484375 81 C 63.113281 81 62 79.886719 62 78.515625 C 62 77.144531 63.113281 76.035156 64.484375 76.035156 C 65.855469 76.035156 66.964844 77.144531 66.964844 78.515625 Z M 66.964844 78.515625 "/>
<path style=" stroke:none;fill-rule:nonzero;fill:rgb(100%,100%,100%);fill-opacity:1;" d="M 17 48 C 17 48.550781 16.550781 49 16 49 C 15.449219 49 15 48.550781 15 48 C 15 47.449219 15.449219 47 16 47 C 16.550781 47 17 47.449219 17 48 Z M 17 48 "/>
<path style=" stroke:none;fill-rule:nonzero;fill:rgb(94.509804%,73.725492%,9.803922%);fill-opacity:1;" d="M 87 31 C 87 31.550781 86.550781 32 86 32 C 85.449219 32 85 31.550781 85 31 C 85 30.449219 85.449219 30 86 30 C 86.550781 30 87 30.449219 87 31 Z M 87 31 "/>
<path style=" stroke:none;fill-rule:nonzero;fill:rgb(100%,100%,100%);fill-opacity:1;" d="M 77 28 C 77 29.105469 76.105469 30 75 30 C 73.894531 30 73 29.105469 73 28 C 73 26.894531 73.894531 26 75 26 C 76.105469 26 77 26.894531 77 28 Z M 77 28 "/>
<path style=" stroke:none;fill-rule:nonzero;fill:rgb(63.137257%,63.137257%,79.215688%);fill-opacity:1;" d="M 33.5 60.300781 C 29.816406 60.300781 26.808594 57.355469 26.703125 53.699219 L 38.300781 53.699219 L 38.300781 60.300781 Z M 33.5 60.300781 "/>
<path style=" stroke:none;fill-rule:nonzero;fill:rgb(27.843139%,16.862746%,16.078432%);fill-opacity:1;" d="M 37.601562 54.398438 L 37.601562 59.601562 L 33.5 59.601562 C 30.441406 59.601562 27.902344 57.339844 27.464844 54.398438 L 37.601562 54.398438 M 38.5 53 L 26.5 53 C 26.222656 53 26 53.222656 26 53.5 C 26 57.640625 29.359375 61 33.5 61 L 38.5 61 C 38.777344 61 39 60.777344 39 60.5 L 39 53.5 C 39 53.222656 38.777344 53 38.5 53 Z M 38.5 53 "/>
<path style=" stroke:none;fill-rule:nonzero;fill:rgb(63.137257%,63.137257%,79.215688%);fill-opacity:1;" d="M 37.699219 74.300781 L 37.699219 70.699219 L 39.152344 70.699219 C 39.386719 70.699219 39.628906 70.628906 39.824219 70.5 C 41.882812 69.15625 42.882812 67.09375 42.496094 64.984375 C 42.09375 62.773438 40.261719 61.039062 37.699219 60.425781 L 37.699219 52.699219 L 69.300781 52.699219 L 69.300781 56.457031 C 65.324219 57.546875 61.976562 60.457031 60.9375 63.738281 C 60.199219 66.066406 60.671875 68.386719 62.265625 70.269531 C 62.492188 70.539062 62.839844 70.699219 63.195312 70.699219 L 64.300781 70.699219 L 64.300781 74.300781 Z M 37.699219 74.300781 "/>
<path style=" stroke:none;fill-rule:nonzero;fill:rgb(27.843139%,16.862746%,16.078432%);fill-opacity:1;" d="M 68.601562 53.398438 L 68.601562 55.933594 C 64.578125 57.191406 61.351562 60.117188 60.269531 63.527344 C 59.460938 66.09375 59.976562 68.648438 61.734375 70.722656 C 62.097656 71.152344 62.628906 71.398438 63.195312 71.398438 L 63.601562 71.398438 L 63.601562 73.601562 L 38.398438 73.601562 L 38.398438 71.398438 L 39.152344 71.398438 C 39.527344 71.398438 39.894531 71.292969 40.207031 71.085938 C 42.511719 69.582031 43.628906 67.253906 43.1875 64.859375 C 42.761719 62.53125 40.953125 60.675781 38.402344 59.894531 L 38.402344 53.398438 L 68.601562 53.398438 M 69.5 52 L 37.5 52 C 37.222656 52 37 52.222656 37 52.5 L 37 60.59375 C 37 60.828125 37.171875 61.027344 37.402344 61.078125 C 42.246094 62.140625 43.515625 67.253906 39.441406 69.914062 C 39.355469 69.96875 39.253906 70 39.152344 70 L 37.5 70 C 37.222656 70 37 70.222656 37 70.5 L 37 74.5 C 37 74.777344 37.222656 75 37.5 75 L 64.5 75 C 64.777344 75 65 74.777344 65 74.5 L 65 70.5 C 65 70.222656 64.777344 70 64.5 70 L 63.195312 70 C 63.046875 70 62.898438 69.933594 62.800781 69.820312 C 58.847656 65.140625 63.238281 58.765625 69.625 57.09375 C 69.84375 57.035156 70 56.84375 70 56.613281 L 70 52.5 C 70 52.222656 69.777344 52 69.5 52 Z M 69.5 52 "/>
<path style=" stroke:none;fill-rule:nonzero;fill:rgb(74.117649%,59.215689%,48.627451%);fill-opacity:1;" d="M 72.441406 44.871094 C 72.410156 44.871094 72.375 44.867188 72.34375 44.859375 L 38.523438 36.890625 C 38.414062 36.867188 38.316406 36.796875 38.257812 36.699219 C 38.199219 36.605469 38.179688 36.488281 38.207031 36.378906 L 39.296875 31.761719 C 39.34375 31.566406 39.515625 31.433594 39.714844 31.433594 C 39.746094 31.433594 39.78125 31.4375 39.8125 31.445312 L 73.632812 39.410156 C 73.863281 39.464844 74.003906 39.695312 73.949219 39.925781 L 72.855469 44.542969 C 72.8125 44.734375 72.640625 44.871094 72.441406 44.871094 Z M 72.441406 44.871094 "/>
<path style=" stroke:none;fill-rule:nonzero;fill:rgb(27.843139%,16.862746%,16.078432%);fill-opacity:1;" d="M 39.917969 32.1875 L 73.207031 40.027344 L 72.238281 44.117188 L 38.949219 36.273438 L 39.917969 32.1875 M 39.714844 30.730469 C 39.203125 30.730469 38.742188 31.082031 38.617188 31.597656 L 37.523438 36.214844 C 37.382812 36.820312 37.757812 37.429688 38.363281 37.574219 L 72.183594 45.539062 C 72.269531 45.5625 72.355469 45.570312 72.441406 45.570312 C 72.953125 45.570312 73.414062 45.222656 73.539062 44.703125 L 74.632812 40.085938 C 74.773438 39.480469 74.398438 38.871094 73.792969 38.726562 L 39.976562 30.761719 C 39.886719 30.742188 39.800781 30.730469 39.714844 30.730469 Z M 39.714844 30.730469 "/>
<path style=" stroke:none;fill-rule:nonzero;fill:rgb(79.607844%,78.823531%,73.725492%);fill-opacity:1;" d="M 30.847656 41.242188 L 33.75 29.15625 L 41.644531 23.074219 C 41.847656 22.914062 42.101562 22.828125 42.359375 22.828125 C 42.453125 22.828125 42.542969 22.839844 42.632812 22.859375 L 44.039062 23.195312 L 39.257812 43.230469 Z M 30.847656 41.242188 "/>
<path style=" stroke:none;fill-rule:nonzero;fill:rgb(27.843139%,16.862746%,16.078432%);fill-opacity:1;" d="M 42.359375 23.53125 C 42.398438 23.53125 42.433594 23.535156 42.472656 23.542969 L 43.15625 23.707031 L 38.734375 42.390625 L 31.730469 40.730469 L 34.371094 29.574219 L 42.070312 23.628906 C 42.152344 23.566406 42.257812 23.53125 42.359375 23.53125 M 42.359375 22.128906 C 41.949219 22.128906 41.546875 22.265625 41.214844 22.519531 L 33.304688 28.625 C 33.1875 28.71875 33.101562 28.847656 33.066406 28.996094 L 30.195312 41.128906 C 30.109375 41.484375 30.328125 41.839844 30.683594 41.921875 L 39.132812 43.921875 C 39.183594 43.933594 39.234375 43.941406 39.285156 43.941406 C 39.582031 43.941406 39.855469 43.734375 39.925781 43.433594 L 44.6875 23.308594 C 44.773438 22.953125 44.554688 22.597656 44.199219 22.511719 L 42.789062 22.179688 C 42.648438 22.144531 42.503906 22.128906 42.359375 22.128906 Z M 42.359375 22.128906 "/>
<path style=" stroke:none;fill-rule:nonzero;fill:rgb(27.843139%,16.862746%,16.078432%);fill-opacity:1;" d="M 43.5 57 L 40.5 57 C 40.222656 57 40 56.777344 40 56.5 C 40 56.222656 40.222656 56 40.5 56 L 43.5 56 C 43.777344 56 44 56.222656 44 56.5 C 44 56.777344 43.777344 57 43.5 57 Z M 43.5 57 "/>
<path style=" stroke:none;fill-rule:nonzero;fill:rgb(27.843139%,16.862746%,16.078432%);fill-opacity:1;" d="M 52.5 57 L 45.5 57 C 45.222656 57 45 56.777344 45 56.5 C 45 56.222656 45.222656 56 45.5 56 L 52.5 56 C 52.777344 56 53 56.222656 53 56.5 C 53 56.777344 52.777344 57 52.5 57 Z M 52.5 57 "/>
<path style=" stroke:none;fill-rule:nonzero;fill:rgb(27.843139%,16.862746%,16.078432%);fill-opacity:1;" d="M 68.5 57 L 54.5 57 C 54.222656 57 54 56.777344 54 56.5 C 54 56.222656 54.222656 56 54.5 56 L 68.5 56 C 68.777344 56 69 56.222656 69 56.5 C 69 56.777344 68.777344 57 68.5 57 Z M 68.5 57 "/>
<path style=" stroke:none;fill-rule:nonzero;fill:rgb(27.843139%,16.862746%,16.078432%);fill-opacity:1;" d="M 48.648438 30.445312 C 48.628906 30.445312 48.605469 30.441406 48.585938 30.4375 L 45.46875 29.65625 C 45.335938 29.621094 45.253906 29.488281 45.285156 29.355469 C 45.320312 29.21875 45.457031 29.136719 45.589844 29.171875 L 48.707031 29.953125 C 48.839844 29.984375 48.921875 30.121094 48.890625 30.253906 C 48.859375 30.367188 48.757812 30.445312 48.648438 30.445312 Z M 48.648438 30.445312 "/>
<path style=" stroke:none;fill-rule:nonzero;fill:rgb(27.843139%,16.862746%,16.078432%);fill-opacity:1;" d="M 58 32.785156 C 57.980469 32.785156 57.960938 32.78125 57.9375 32.777344 L 50.664062 30.957031 C 50.53125 30.921875 50.449219 30.789062 50.484375 30.652344 C 50.515625 30.519531 50.652344 30.4375 50.785156 30.472656 L 58.058594 32.292969 C 58.195312 32.324219 58.273438 32.460938 58.242188 32.59375 C 58.214844 32.710938 58.113281 32.785156 58 32.785156 Z M 58 32.785156 "/>
<path style=" stroke:none;fill-rule:nonzero;fill:rgb(27.843139%,16.862746%,16.078432%);fill-opacity:1;" d="M 74.625 36.945312 C 74.605469 36.945312 74.585938 36.945312 74.566406 36.9375 L 60.015625 33.296875 C 59.882812 33.265625 59.800781 33.128906 59.835938 32.996094 C 59.867188 32.859375 60.007812 32.777344 60.136719 32.8125 L 74.6875 36.453125 C 74.820312 36.488281 74.902344 36.621094 74.867188 36.757812 C 74.839844 36.871094 74.738281 36.945312 74.625 36.945312 Z M 74.625 36.945312 "/>
<path style=" stroke:none;fill-rule:nonzero;fill:rgb(27.843139%,16.862746%,16.078432%);fill-opacity:1;" d="M 59.5 71 L 49.5 71 C 49.222656 71 49 70.777344 49 70.5 C 49 70.222656 49.222656 70 49.5 70 L 59.5 70 C 59.777344 70 60 70.222656 60 70.5 C 60 70.777344 59.777344 71 59.5 71 Z M 59.5 71 "/>
<path style=" stroke:none;fill-rule:nonzero;fill:rgb(27.843139%,16.862746%,16.078432%);fill-opacity:1;" d="M 47.5 71 L 43.5 71 C 43.222656 71 43 70.777344 43 70.5 C 43 70.222656 43.222656 70 43.5 70 L 47.5 70 C 47.777344 70 48 70.222656 48 70.5 C 48 70.777344 47.777344 71 47.5 71 Z M 47.5 71 "/>
<path style=" stroke:none;fill-rule:nonzero;fill:rgb(27.843139%,16.862746%,16.078432%);fill-opacity:1;" d="M 44.460938 68.25 C 44.425781 68.25 44.394531 68.242188 44.359375 68.230469 C 44.234375 68.175781 44.175781 68.027344 44.230469 67.902344 C 45.023438 66.027344 44.910156 64.171875 43.890625 62.382812 C 43.824219 62.265625 43.867188 62.109375 43.984375 62.042969 C 44.105469 61.976562 44.257812 62.015625 44.328125 62.136719 C 45.425781 64.066406 45.546875 66.074219 44.6875 68.097656 C 44.648438 68.191406 44.558594 68.25 44.460938 68.25 Z M 44.460938 68.25 "/>
<path style=" stroke:none;fill-rule:nonzero;fill:rgb(27.843139%,16.862746%,16.078432%);fill-opacity:1;" d="M 42.894531 60.859375 C 42.824219 60.859375 42.757812 60.835938 42.710938 60.78125 C 41.792969 59.785156 40.902344 59.21875 40.894531 59.210938 C 40.777344 59.136719 40.742188 58.984375 40.816406 58.867188 C 40.890625 58.75 41.046875 58.714844 41.160156 58.789062 C 41.199219 58.8125 42.113281 59.394531 43.078125 60.441406 C 43.171875 60.542969 43.164062 60.699219 43.0625 60.792969 C 43.015625 60.839844 42.953125 60.859375 42.894531 60.859375 Z M 42.894531 60.859375 "/>
</g>
</svg>
