<svg fill="#000000" xmlns="http://www.w3.org/2000/svg"  viewBox="0 0 80 80" width="80px" height="80px"><path d="M 23 5 C 20.802666 5 19 6.8026661 19 9 L 19 10 L 16 10 C 14.268756 10 13 11.572894 13 13.320312 L 13 66.679688 C 13 68.427105 14.268756 70 16 70 L 64 70 C 65.731244 70 67 68.427105 67 66.679688 L 67 13.320312 C 67 11.572895 65.731244 10 64 10 L 60 10 L 60 9 C 60 6.8026661 58.197334 5 56 5 C 53.802666 5 52 6.8026661 52 9 L 52 10 L 49 10 L 49 9 C 49 6.8026661 47.197334 5 45 5 C 42.802666 5 41 6.8026661 41 9 L 41 10 L 38 10 L 38 9 C 38 6.8026661 36.197334 5 34 5 C 31.802666 5 30 6.8026661 30 9 L 30 10 L 27 10 L 27 9 C 27 6.8026661 25.197334 5 23 5 z M 23 7 C 24.116666 7 25 7.8833339 25 9 L 25 13 C 23.895 13 23 13.895 23 15 C 23 16.105 23.895 17 25 17 C 26.030595 17 26.868998 16.218119 26.978516 15.216797 A 1.0001 1.0001 0 0 0 27 15 L 27 12 L 30.832031 12 A 1.0001 1.0001 0 0 0 31.158203 12 L 33 12 A 1.0001 1.0001 0 1 0 33 10 L 32 10 L 32 9 C 32 7.8833339 32.883334 7 34 7 C 35.116666 7 36 7.8833339 36 9 L 36 13 C 34.895 13 34 13.895 34 15 C 34 16.105 34.895 17 36 17 C 37.030595 17 37.868998 16.218119 37.978516 15.216797 A 1.0001 1.0001 0 0 0 38 15 L 38 12 L 41.832031 12 A 1.0001 1.0001 0 0 0 42.158203 12 L 44 12 A 1.0001 1.0001 0 1 0 44 10 L 43 10 L 43 9 C 43 7.8833339 43.883334 7 45 7 C 46.116666 7 47 7.8833339 47 9 L 47 10.832031 A 1.0001 1.0001 0 0 0 47 11.158203 L 47 13 C 45.895 13 45 13.895 45 15 C 45 16.105 45.895 17 47 17 C 48.030595 17 48.868998 16.218119 48.978516 15.216797 A 1.0001 1.0001 0 0 0 49 15 L 49 12 L 52.832031 12 A 1.0001 1.0001 0 0 0 53.158203 12 L 55 12 A 1.0001 1.0001 0 1 0 55 10 L 54 10 L 54 9 C 54 7.8833339 54.883334 7 56 7 C 57.116666 7 58 7.8833339 58 9 L 58 10.832031 A 1.0001 1.0001 0 0 0 58 11.158203 L 58 13 C 56.895 13 56 13.895 56 15 C 56 16.105 56.895 17 58 17 C 59.030595 17 59.868998 16.218119 59.978516 15.216797 A 1.0001 1.0001 0 0 0 60 15 L 60 12 L 64 12 C 64.478756 12 65 12.503732 65 13.320312 L 65 66.679688 C 65 67.496268 64.478756 68 64 68 L 16 68 C 15.521244 68 15 67.496268 15 66.679688 L 15 13.320312 C 15 12.503732 15.521244 12 16 12 L 19.832031 12 A 1.0001 1.0001 0 0 0 20.158203 12 L 22 12 A 1.0001 1.0001 0 1 0 22 10 L 21 10 L 21 9 C 21 7.8833339 21.883334 7 23 7 z M 18 20 L 17.199219 20.402344 L 17.041016 21.283203 L 17.652344 21.9375 L 18 22 L 18.800781 21.597656 L 18.958984 20.716797 L 18.347656 20.0625 L 18 20 z M 22 20 L 21.199219 20.402344 L 21.041016 21.283203 L 21.652344 21.9375 L 22 22 L 22.800781 21.597656 L 22.958984 20.716797 L 22.347656 20.0625 L 22 20 z M 26 20 L 25.199219 20.402344 L 25.041016 21.283203 L 25.652344 21.9375 L 26 22 L 26.800781 21.597656 L 26.958984 20.716797 L 26.347656 20.0625 L 26 20 z M 30 20 L 29.199219 20.402344 L 29.041016 21.283203 L 29.652344 21.9375 L 30 22 L 30.800781 21.597656 L 30.958984 20.716797 L 30.347656 20.0625 L 30 20 z M 34 20 L 33.199219 20.402344 L 33.041016 21.283203 L 33.652344 21.9375 L 34 22 L 34.800781 21.597656 L 34.958984 20.716797 L 34.347656 20.0625 L 34 20 z M 38 20 L 37.199219 20.402344 L 37.041016 21.283203 L 37.652344 21.9375 L 38 22 L 38.800781 21.597656 L 38.958984 20.716797 L 38.347656 20.0625 L 38 20 z M 42 20 L 41.199219 20.402344 L 41.041016 21.283203 L 41.652344 21.9375 L 42 22 L 42.800781 21.597656 L 42.958984 20.716797 L 42.347656 20.0625 L 42 20 z M 46 20 L 45.199219 20.402344 L 45.041016 21.283203 L 45.652344 21.9375 L 46 22 L 46.800781 21.597656 L 46.958984 20.716797 L 46.347656 20.0625 L 46 20 z M 50 20 L 49.199219 20.402344 L 49.041016 21.283203 L 49.652344 21.9375 L 50 22 L 50.800781 21.597656 L 50.958984 20.716797 L 50.347656 20.0625 L 50 20 z M 54 20 L 53.199219 20.402344 L 53.041016 21.283203 L 53.652344 21.9375 L 54 22 L 54.800781 21.597656 L 54.958984 20.716797 L 54.347656 20.0625 L 54 20 z M 58 20 L 57.199219 20.402344 L 57.041016 21.283203 L 57.652344 21.9375 L 58 22 L 58.800781 21.597656 L 58.958984 20.716797 L 58.347656 20.0625 L 58 20 z M 62 20 L 61.199219 20.402344 L 61.041016 21.283203 L 61.652344 21.9375 L 62 22 L 62.800781 21.597656 L 62.958984 20.716797 L 62.347656 20.0625 L 62 20 z M 23 29 L 23 31 L 58 31 L 58 29 L 23 29 z M 23 35 L 23 37 L 58 37 L 58 35 L 23 35 z M 23 41 L 23 43 L 38 43 L 38 41 L 23 41 z M 23 51 L 23 53 L 52 53 L 52 51 L 23 51 z M 23 57 L 23 59 L 38 59 L 38 57 L 23 57 z"/></svg>