<svg fill="#000000" xmlns="http://www.w3.org/2000/svg"  viewBox="0 0 80 80" width="80px" height="80px"><path d="M 15 10 C 12.25 10 10 12.25 10 15 L 10 65 C 10 67.75 12.25 70 15 70 L 65 70 C 67.75 70 70 67.75 70 65 L 70 20.585938 L 59.414063 10 Z M 15 12 L 22 12 L 22 27 C 22 28.644531 23.355469 30 25 30 L 53 30 C 54.644531 30 56 28.644531 56 27 L 56 12 L 58.585938 12 L 68 21.414063 L 68 65 C 68 66.667969 66.667969 68 65 68 L 60 68 L 60 45 C 60 42.25 57.75 40 55 40 L 25 40 C 22.25 40 20 42.25 20 45 L 20 68 L 15 68 C 13.332031 68 12 66.667969 12 65 L 12 15 C 12 13.332031 13.332031 12 15 12 Z M 24 12 L 27.1875 12 C 27.074219 12.316406 27 12.648438 27 13 L 27 27 C 27 27.351563 27.074219 27.683594 27.1875 28 L 25 28 C 24.433594 28 24 27.566406 24 27 Z M 30 12 L 53 12 C 53.566406 12 54 12.433594 54 13 L 54 27 C 54 27.566406 53.566406 28 53 28 L 30 28 C 29.433594 28 29 27.566406 29 27 L 29 13 C 29 12.433594 29.433594 12 30 12 Z M 44 15 L 44 25 L 50 25 L 50 15 Z M 46 17 L 48 17 L 48 23 L 46 23 Z M 25 42 L 55 42 C 56.667969 42 58 43.332031 58 45 L 58 47 C 57.449219 47 57 47.449219 57 48 C 57 48.550781 57.449219 49 58 49 L 58 54 C 57.449219 54 57 54.449219 57 55 C 57 55.550781 57.449219 56 58 56 L 58 61 C 57.449219 61 57 61.449219 57 62 C 57 62.550781 57.449219 63 58 63 L 58 68 L 22 68 L 22 63 C 22.550781 63 23 62.550781 23 62 C 23 61.449219 22.550781 61 22 61 L 22 56 C 22.550781 56 23 55.550781 23 55 C 23 54.449219 22.550781 54 22 54 L 22 49 C 22.550781 49 23 48.550781 23 48 C 23 47.449219 22.550781 47 22 47 L 22 45 C 22 43.332031 23.332031 42 25 42 Z M 26 47 C 25.449219 47 25 47.449219 25 48 C 25 48.550781 25.449219 49 26 49 C 26.550781 49 27 48.550781 27 48 C 27 47.449219 26.550781 47 26 47 Z M 30 47 C 29.449219 47 29 47.449219 29 48 C 29 48.550781 29.449219 49 30 49 C 30.550781 49 31 48.550781 31 48 C 31 47.449219 30.550781 47 30 47 Z M 34 47 C 33.449219 47 33 47.449219 33 48 C 33 48.550781 33.449219 49 34 49 C 34.550781 49 35 48.550781 35 48 C 35 47.449219 34.550781 47 34 47 Z M 38 47 C 37.449219 47 37 47.449219 37 48 C 37 48.550781 37.449219 49 38 49 C 38.550781 49 39 48.550781 39 48 C 39 47.449219 38.550781 47 38 47 Z M 42 47 C 41.449219 47 41 47.449219 41 48 C 41 48.550781 41.449219 49 42 49 C 42.550781 49 43 48.550781 43 48 C 43 47.449219 42.550781 47 42 47 Z M 46 47 C 45.449219 47 45 47.449219 45 48 C 45 48.550781 45.449219 49 46 49 C 46.550781 49 47 48.550781 47 48 C 47 47.449219 46.550781 47 46 47 Z M 50 47 C 49.449219 47 49 47.449219 49 48 C 49 48.550781 49.449219 49 50 49 C 50.550781 49 51 48.550781 51 48 C 51 47.449219 50.550781 47 50 47 Z M 54 47 C 53.449219 47 53 47.449219 53 48 C 53 48.550781 53.449219 49 54 49 C 54.550781 49 55 48.550781 55 48 C 55 47.449219 54.550781 47 54 47 Z M 26 54 C 25.449219 54 25 54.449219 25 55 C 25 55.550781 25.449219 56 26 56 C 26.550781 56 27 55.550781 27 55 C 27 54.449219 26.550781 54 26 54 Z M 30 54 C 29.449219 54 29 54.449219 29 55 C 29 55.550781 29.449219 56 30 56 C 30.550781 56 31 55.550781 31 55 C 31 54.449219 30.550781 54 30 54 Z M 34 54 C 33.449219 54 33 54.449219 33 55 C 33 55.550781 33.449219 56 34 56 C 34.550781 56 35 55.550781 35 55 C 35 54.449219 34.550781 54 34 54 Z M 38 54 C 37.449219 54 37 54.449219 37 55 C 37 55.550781 37.449219 56 38 56 C 38.550781 56 39 55.550781 39 55 C 39 54.449219 38.550781 54 38 54 Z M 42 54 C 41.449219 54 41 54.449219 41 55 C 41 55.550781 41.449219 56 42 56 C 42.550781 56 43 55.550781 43 55 C 43 54.449219 42.550781 54 42 54 Z M 46 54 C 45.449219 54 45 54.449219 45 55 C 45 55.550781 45.449219 56 46 56 C 46.550781 56 47 55.550781 47 55 C 47 54.449219 46.550781 54 46 54 Z M 50 54 C 49.449219 54 49 54.449219 49 55 C 49 55.550781 49.449219 56 50 56 C 50.550781 56 51 55.550781 51 55 C 51 54.449219 50.550781 54 50 54 Z M 54 54 C 53.449219 54 53 54.449219 53 55 C 53 55.550781 53.449219 56 54 56 C 54.550781 56 55 55.550781 55 55 C 55 54.449219 54.550781 54 54 54 Z M 26 61 C 25.449219 61 25 61.449219 25 62 C 25 62.550781 25.449219 63 26 63 C 26.550781 63 27 62.550781 27 62 C 27 61.449219 26.550781 61 26 61 Z M 30 61 C 29.449219 61 29 61.449219 29 62 C 29 62.550781 29.449219 63 30 63 C 30.550781 63 31 62.550781 31 62 C 31 61.449219 30.550781 61 30 61 Z M 34 61 C 33.449219 61 33 61.449219 33 62 C 33 62.550781 33.449219 63 34 63 C 34.550781 63 35 62.550781 35 62 C 35 61.449219 34.550781 61 34 61 Z M 38 61 C 37.449219 61 37 61.449219 37 62 C 37 62.550781 37.449219 63 38 63 C 38.550781 63 39 62.550781 39 62 C 39 61.449219 38.550781 61 38 61 Z M 42 61 C 41.449219 61 41 61.449219 41 62 C 41 62.550781 41.449219 63 42 63 C 42.550781 63 43 62.550781 43 62 C 43 61.449219 42.550781 61 42 61 Z M 46 61 C 45.449219 61 45 61.449219 45 62 C 45 62.550781 45.449219 63 46 63 C 46.550781 63 47 62.550781 47 62 C 47 61.449219 46.550781 61 46 61 Z M 50 61 C 49.449219 61 49 61.449219 49 62 C 49 62.550781 49.449219 63 50 63 C 50.550781 63 51 62.550781 51 62 C 51 61.449219 50.550781 61 50 61 Z M 54 61 C 53.449219 61 53 61.449219 53 62 C 53 62.550781 53.449219 63 54 63 C 54.550781 63 55 62.550781 55 62 C 55 61.449219 54.550781 61 54 61 Z M 14 62 L 14 64 L 16 64 L 16 62 Z M 64 62 L 64 64 L 66 64 L 66 62 Z"/></svg>