<svg id="icons" enable-background="new 0 0 64 64" height="512" viewBox="0 0 64 64" width="512" xmlns="http://www.w3.org/2000/svg"><path d="m2.001 62.5h45.999c1.103 0 2-.897 2-2v-6.998c0-4.963-4.037-9-9-9l-7-.001v-3.917l7.49-4.213c.037-.021.06-.056.094-.08.058-.043.113-.085.16-.139.042-.048.072-.1.104-.154.033-.056.064-.108.086-.171.023-.065.032-.132.041-.201.005-.043.025-.081.025-.126v-9c0-.037-.018-.069-.021-.105-.007-.068-.019-.131-.039-.195-.02-.062-.044-.117-.075-.173-.03-.056-.063-.106-.104-.155-.041-.051-.086-.094-.136-.135-.049-.039-.098-.073-.153-.104-.061-.032-.122-.056-.189-.076-.034-.01-.061-.032-.097-.039l-.186-.035v-7.983c0-8.822-7.178-16-16-16s-16 7.178-16 16v7.983l-.185.034c-.036.007-.063.029-.097.039-.067.021-.129.044-.189.076-.056.03-.104.064-.153.104-.05.041-.095.084-.136.135-.041.049-.074.1-.105.155-.03.056-.055.111-.074.173-.021.064-.032.127-.039.195-.004.037-.022.069-.022.106v9c0 .045.02.083.025.126.009.069.018.136.041.201.021.063.053.115.086.171.031.055.062.106.104.154.047.054.103.096.16.138.034.025.057.06.094.081l7.49 4.213v3.918l-6.998-.001c-4.964 0-9.002 4.038-9.002 9.002l.001 6.997c0 1.103.897 2 2 2zm14.763-15.998 7.236 3.618v2.38c0 .553.447 1 1 1s1-.447 1-1v-2.38l7.236-3.619h2.809c.171 2.456 1.064 8.947 5.544 13.999h-10.679c-.479-2.833-2.943-5-5.91-5s-5.432 2.167-5.91 5h-10.679c4.479-5.051 5.373-11.542 5.544-13.998zm12.094 13.998h-7.717c.447-1.721 2-3 3.858-3s3.412 1.279 3.859 3zm19.142-6.998v6.998h-3.604c-5.071-4.551-6.126-11.442-6.341-13.998h2.945c3.859 0 7 3.141 7 7zm-23-10.148-15-8.438v-7.587l15-2.813 15 2.813v7.587zm-14-25.854c0-7.72 6.28-14 14-14s14 6.28 14 14v7.608l-13.815-2.591c-.063-.012-.123.003-.185.003-.063 0-.121-.015-.185-.003l-13.815 2.591zm13.501 27.866c.001.001.003.001.004.002l.005.003c.041.023.084.034.126.051.036.015.071.034.109.045.084.021.169.033.254.033h.001.001c.085 0 .17-.012.254-.033.044-.012.085-.034.127-.052.036-.015.073-.024.108-.044l.004-.002c.002-.002.004-.003.006-.004l6.5-3.656v3.174l-7 3.501-7-3.5v-3.175zm-15.499 1.135h2.943c-.21 2.553-1.256 9.437-6.342 13.999h-3.602l-.001-6.997c0-3.861 3.141-7.002 7.002-7.002z"/><path d="m26 19.5v-13c0-.553-.447-1-1-1s-1 .447-1 1v13c0 .553.447 1 1 1s1-.447 1-1z"/><path d="m25 27.5c-.553 0-1 .447-1 1v11c0 .553.447 1 1 1s1-.447 1-1v-11c0-.553-.447-1-1-1z"/><path d="m30 28.5c-.553 0-1 .447-1 1v7.188c0 .553.447 1 1 1s1-.447 1-1v-7.188c0-.553-.447-1-1-1z"/><path d="m35 29.375c-.553 0-1 .447-1 1v3.5c0 .553.447 1 1 1s1-.447 1-1v-3.5c0-.553-.447-1-1-1z"/><path d="m20 28.5c-.553 0-1 .447-1 1v7.188c0 .553.447 1 1 1s1-.447 1-1v-7.188c0-.553-.447-1-1-1z"/><path d="m15 29.375c-.553 0-1 .447-1 1v3.5c0 .553.447 1 1 1s1-.447 1-1v-3.5c0-.553-.447-1-1-1z"/><path d="m21 15.5h-7c-.553 0-1 .447-1 1v3c0 .553.447 1 1 1h7c.553 0 1-.447 1-1v-3c0-.553-.447-1-1-1zm-1 3h-5v-1h5z"/><path d="m29 20.5h7c.553 0 1-.447 1-1v-3c0-.553-.447-1-1-1h-7c-.553 0-1 .447-1 1v3c0 .553.447 1 1 1zm1-3h5v1h-5z"/><path d="m63.933 24.166c-.023-.066-.06-.123-.097-.182-.023-.038-.032-.082-.062-.117l-9.002-11.003c-.381-.465-1.168-.465-1.549 0l-9.001 11.003c-.029.035-.038.079-.062.117-.037.059-.073.115-.097.182-.024.068-.032.136-.041.205-.006.044-.026.083-.026.129 0 .017.009.031.01.048.003.07.022.136.041.204.016.06.026.119.053.174.024.053.063.098.098.146.042.059.081.117.135.165.013.012.019.027.031.038.035.029.078.038.116.062.06.037.117.073.185.097.066.024.133.032.202.041.044.006.084.026.13.026h3.001v8c0 .553.447 1 1 1h10c.553 0 1-.447 1-1v-8h3.002.001c.122 0 .243-.027.359-.072.045-.018.081-.046.122-.068.05-.028.104-.047.15-.085.013-.011.019-.026.031-.038.054-.048.093-.105.135-.165.034-.048.073-.093.098-.146.026-.055.037-.114.053-.174.019-.068.038-.134.041-.204.001-.018.01-.032.01-.049 0-.046-.02-.084-.025-.128-.01-.07-.018-.138-.042-.206zm-9.935-9.09 6.892 8.424h-1.892c-.553 0-1 .447-1 1v8h-8v-8c0-.553-.447-1-1-1h-1.891z"/><path d="m48.998 37.5h10.001c.553 0 1-.447 1-1s-.447-1-1-1h-10.001c-.553 0-1 .447-1 1s.447 1 1 1z"/><path d="m48.998 40.5h10.001c.553 0 1-.447 1-1s-.447-1-1-1h-10.001c-.553 0-1 .447-1 1s.447 1 1 1z"/><path d="m48.998 43.5h10.001c.553 0 1-.447 1-1s-.447-1-1-1h-10.001c-.553 0-1 .447-1 1s.447 1 1 1z"/><path d="m52 27.5h1v.999c0 .553.447 1 1 1s1-.447 1-1v-.999h1c.553 0 1-.447 1-1s-.447-1-1-1h-1v-.999c0-.553-.447-1-1-1s-1 .447-1 1v.999h-1c-.553 0-1 .447-1 1s.447 1 1 1z"/><path d="m49 5.5v5c0 .553.447 1 1 1s1-.447 1-1v-5c0-.553-.447-1-1-1s-1 .447-1 1z"/><path d="m54.605 7.052-.605 1.212-.606-1.212c-.247-.494-.848-.692-1.342-.447-.494.247-.694.848-.447 1.342l1.501 3.001c.028.057.068.104.105.152.016.021.025.042.043.062.079.089.172.159.274.214.009.006.015.015.024.02.014.007.029.004.044.011.126.056.26.094.399.094.001 0 .002.001.003.001h.002.001c.001 0 .002-.001.003-.001.14 0 .273-.038.4-.095.014-.006.029-.003.043-.01.01-.005.015-.014.024-.019.103-.056.196-.126.275-.216.017-.018.026-.039.041-.059.037-.05.078-.097.106-.154l1.5-3.001c.247-.494.047-1.095-.447-1.342-.494-.246-1.094-.047-1.341.447z"/><path d="m57.001 5.5v5c0 .553.447 1 1 1s1-.447 1-1v-5c0-.553-.447-1-1-1s-1 .447-1 1z"/></svg>